<svg version="1.1" id="Layer_1" xmlns="http://www.w3.org/2000/svg" xmlns:xlink="http://www.w3.org/1999/xlink" x="0px" y="0px"
	 width="100%" viewBox="0 0 1200 840" enable-background="new 0 0 1200 840" xml:space="preserve">
<path fill="#009B3A" opacity="1.000000" stroke="none" 
	d="
M746.000000,841.000000 
	C497.363708,841.000000 249.227432,841.000000 1.091141,841.000000 
	C1.060751,840.863708 1.003736,840.727478 1.003735,840.591187 
	C0.999978,560.792114 1.000000,280.993042 1.000000,1.000000 
	C200.910812,1.000000 400.821686,1.000000 600.732544,1.000000 
	C800.708069,1.000000 1000.683533,1.000000 1200.829590,1.000000 
	C1200.829590,280.999908 1200.829590,560.999939 1200.829590,841.000000 
	C1049.462524,841.000000 897.981262,841.000000 746.000000,841.000000 
M508.537170,679.948975 
	C538.010010,698.763245 567.520508,717.519165 596.901001,736.476501 
	C600.054138,738.511047 602.088806,738.425049 605.209106,736.430298 
	C768.215454,632.221924 931.285339,528.112915 1094.342773,423.984314 
	C1095.682861,423.128418 1096.943115,422.147583 1098.599365,420.970062 
	C1096.972900,419.828766 1095.813721,418.947693 1094.590576,418.166656 
	C931.390991,313.951447 768.181702,209.751328 605.022705,105.472504 
	C602.134766,103.626785 600.158203,103.445091 597.150330,105.367950 
	C433.859436,209.754761 270.507904,314.046631 107.170471,418.360657 
	C105.984123,419.118317 104.907097,420.047119 103.369415,421.204285 
	C238.553436,507.536743 373.239471,593.551208 508.537170,679.948975 
z"/>
<path fill="#FDDF00" opacity="1.000000" stroke="none" 
	d="
M508.231323,679.757324 
	C373.239471,593.551208 238.553436,507.536743 103.369415,421.204285 
	C104.907097,420.047119 105.984123,419.118317 107.170471,418.360657 
	C270.507904,314.046631 433.859436,209.754761 597.150330,105.367950 
	C600.158203,103.445091 602.134766,103.626785 605.022705,105.472504 
	C768.181702,209.751328 931.390991,313.951447 1094.590576,418.166656 
	C1095.813721,418.947693 1096.972900,419.828766 1098.599365,420.970062 
	C1096.943115,422.147583 1095.682861,423.128418 1094.342773,423.984314 
	C931.285339,528.112915 768.215454,632.221924 605.209106,736.430298 
	C602.088806,738.425049 600.054138,738.511047 596.901001,736.476501 
	C567.520508,717.519165 538.010010,698.763245 508.231323,679.757324 
M408.749054,336.503418 
	C405.171051,346.996826 401.593048,357.490265 397.665436,368.666718 
	C389.319031,401.171570 388.808807,433.819336 396.026337,466.573029 
	C419.923035,575.018005 525.441528,647.166870 634.773560,627.892700 
	C718.464355,613.138794 773.618042,563.516113 801.821655,482.721100 
	C804.153625,471.840210 806.485596,460.959351 808.985291,449.233673 
	C812.556763,424.398468 811.344727,399.745117 805.951904,375.291992 
	C785.640747,283.193726 704.560913,214.963318 610.840149,211.192825 
	C568.692139,209.497147 529.247498,219.079819 493.085938,240.940018 
	C455.265747,263.802887 427.066528,295.349457 408.749054,336.503418 
z"/>
<path fill="#012876" opacity="1.000000" stroke="none" 
	d="
M801.499329,483.392670 
	C773.618042,563.516113 718.464355,613.138794 634.773560,627.892700 
	C525.441528,647.166870 419.923035,575.018005 396.026337,466.573029 
	C388.808807,433.819336 389.319031,401.171570 398.262543,368.339874 
	C451.027649,359.188141 503.245697,358.645050 555.553772,366.835876 
	C627.745178,378.140106 693.948669,404.517151 753.848206,446.275299 
	C770.341492,457.773346 785.648193,470.973511 801.499329,483.392670 
M483.705109,517.011108 
	C485.366608,517.011108 487.028076,517.011108 488.037598,517.011108 
	C488.731750,515.030762 489.398926,513.127197 489.843536,511.858704 
	C488.290131,510.777527 486.732941,509.693695 485.751831,509.010834 
	C484.174011,509.945770 482.571075,510.895569 481.392273,511.594086 
	C481.801575,513.192139 482.238007,514.896057 482.337677,516.904236 
	C482.399628,517.172791 482.461548,517.441406 482.523468,517.709961 
	C482.688110,517.479980 482.852722,517.249939 483.705109,517.011108 
M425.741730,495.218903 
	C425.961945,495.365875 426.182129,495.512878 426.402344,495.659851 
	C426.264343,495.442902 426.126343,495.225983 426.073914,494.188446 
	C426.617279,492.160950 427.160645,490.133423 427.472504,488.969727 
	C425.679138,487.499176 423.819061,485.973938 422.512024,484.902161 
	C420.897766,486.112427 418.876129,487.628113 417.507294,488.654358 
	C418.068970,490.854706 418.675995,493.232788 419.111694,494.939514 
	C421.350739,494.939514 423.739838,494.939514 425.741730,495.218903 
M513.200439,538.452759 
	C514.406128,537.655945 515.611755,536.859131 516.818848,536.061340 
	C518.366516,537.132446 519.699036,538.054626 521.648071,539.403564 
	C521.086060,537.034546 520.687012,535.352356 520.258911,533.547668 
	C521.548279,532.512207 522.864929,531.454956 524.181580,530.397644 
	C518.729187,531.935486 518.342896,527.136597 517.374634,525.673767 
	C514.653076,527.597656 512.226196,529.313232 510.032684,530.863831 
	C514.234497,531.855957 512.089050,535.835510 513.200439,538.452759 
M605.106079,516.072205 
	C606.259094,515.030334 607.412109,513.988464 608.565125,512.946594 
	C603.333984,514.573120 602.582764,510.168579 600.386169,506.252045 
	C600.244080,511.855133 597.550293,513.120544 594.658203,512.557495 
	C595.552368,515.615906 596.418823,518.579468 597.265198,521.474304 
	C598.137451,520.898499 599.613831,519.923828 600.970947,519.027954 
	C602.691528,520.063660 604.132507,520.930969 605.947876,522.023682 
	C605.472656,519.900208 605.119385,518.321472 605.106079,516.072205 
M424.846008,380.467865 
	C423.991821,380.515747 423.137634,380.563629 422.283447,380.611481 
	C427.196289,382.615723 425.780243,386.254852 424.674774,390.187164 
	C426.741028,388.825104 428.200134,387.863281 429.536682,386.982208 
	C431.237762,388.021301 432.645569,388.881256 434.639709,390.099335 
	C433.971130,387.725739 433.529968,386.159485 433.084808,384.579102 
	C434.474945,383.317749 435.832336,382.086090 437.189728,380.854431 
	C432.108185,381.952820 430.829681,378.550934 429.835358,375.796295 
	C428.463593,377.322205 427.051910,378.892456 424.846008,380.467865 
M746.625427,490.352264 
	C744.725464,491.139648 742.825562,491.927032 740.330994,492.960907 
	C746.036255,494.121490 744.062866,497.959930 742.944031,502.647064 
	C746.434448,497.989197 749.529846,498.413483 751.587280,500.262878 
	C752.658325,497.449921 753.718323,494.665985 754.768860,491.906830 
	C753.754028,491.906830 752.119446,491.906830 750.340332,491.906830 
	C749.686462,490.087128 749.092041,488.432892 748.286011,486.189667 
	C747.686829,487.647919 747.274963,488.650146 746.625427,490.352264 
M445.006378,477.397186 
	C446.093475,476.669830 447.180603,475.942474 448.149506,475.294250 
	C449.762848,476.265686 451.166443,477.110809 451.492554,477.307159 
	C452.657959,474.283173 453.707123,471.560913 454.713531,468.949524 
	C450.883911,469.954926 449.088287,467.512726 448.752930,464.541748 
	C446.438385,466.322418 443.953033,468.234528 441.471985,470.143311 
	C442.001923,470.568176 443.264099,471.580139 444.092407,472.244202 
	C444.195862,474.427551 444.277374,476.147339 445.006378,477.397186 
M524.315735,432.210999 
	C525.142639,430.548279 525.969604,428.885559 526.312988,428.195099 
	C524.249634,426.568817 522.378235,425.093842 521.177612,424.147522 
	C519.297302,425.391174 517.311523,426.704620 515.782166,427.716187 
	C516.443787,429.709442 517.258179,432.162933 517.839783,433.915039 
	C519.956726,433.915039 522.463562,433.915039 524.893799,433.915039 
	C524.869568,433.812744 524.757263,433.339081 524.315735,432.210999 
M602.890686,451.799622 
	C602.272278,450.628052 601.653809,449.456451 601.554810,449.268890 
	C599.159180,450.699585 597.136780,451.907349 595.728088,452.748657 
	C596.467957,454.949738 597.276550,457.355255 597.836914,459.022339 
	C599.974487,459.022339 602.369080,459.022339 604.143188,459.022339 
	C604.852356,456.982574 605.690369,454.572205 606.533936,452.145996 
	C605.830811,452.145996 604.686279,452.145996 602.890686,451.799622 
M623.985779,469.736664 
	C622.494385,470.373016 621.002930,471.009369 620.078735,471.403717 
	C620.742004,473.698608 621.466309,476.204559 621.957825,477.905121 
	C624.087158,477.905121 626.520508,477.905121 628.277588,477.905121 
	C629.083557,475.824341 629.992493,473.477814 630.527954,472.095520 
	C628.640930,470.624481 626.782288,469.175598 624.903809,467.711212 
	C624.822876,467.853363 624.501282,468.418457 623.985779,469.736664 
M486.424103,491.366699 
	C487.297150,493.264618 488.170197,495.162537 488.928558,496.811157 
	C490.735870,496.811157 493.227142,496.811157 494.925415,496.811157 
	C495.628021,494.749573 496.422516,492.418396 496.937286,490.907990 
	C495.112396,489.509125 493.178101,488.026398 491.990784,487.116241 
	C490.032074,488.340057 487.978882,489.622925 486.424103,491.366699 
M658.424072,561.366699 
	C659.297119,563.264648 660.170105,565.162598 660.928467,566.811279 
	C662.733215,566.811279 665.225647,566.811279 666.925476,566.811279 
	C667.628113,564.749695 668.422546,562.418579 668.937378,560.907898 
	C667.127808,559.520874 665.182861,558.030090 663.111633,556.442444 
	C664.614929,561.161621 659.559021,559.009338 658.424072,561.366699 
M711.488037,556.259949 
	C711.689697,556.028931 711.911865,555.811523 712.079895,555.558105 
	C712.127258,555.486694 712.054199,555.234253 711.971924,555.192871 
	C709.919006,554.160034 707.857361,553.144348 705.766846,552.110535 
	C704.728394,552.940063 702.814209,554.469116 701.142883,555.804199 
	C701.645020,557.454468 702.365601,559.822754 702.912659,561.620544 
	C704.869324,561.620544 707.355469,561.620544 709.178040,561.620544 
	C709.715393,560.182373 710.360901,558.454712 711.488037,556.259949 
M751.961609,510.974701 
	C751.595032,511.262390 750.874756,511.737091 750.913574,511.810425 
	C751.956726,513.783264 753.077698,515.714905 753.976746,517.288208 
	C755.959167,517.464600 758.384827,517.680420 759.733887,517.800476 
	C760.529175,515.472046 761.292786,513.236328 761.693909,512.061890 
	C759.744995,510.374481 757.896484,508.773987 756.657166,507.700928 
	C755.564453,508.603271 754.137390,509.781677 751.961609,510.974701 
M738.266296,528.935425 
	C739.255005,530.958374 740.243774,532.981262 740.821655,534.163635 
	C743.116333,534.363831 745.463196,534.568542 746.922607,534.695862 
	C747.638794,532.547668 748.400085,530.264221 748.895569,528.778015 
	C747.089783,527.224792 745.162292,525.566833 743.234802,523.908875 
	C743.450684,524.324585 743.666565,524.740234 743.882446,525.155884 
	C741.958313,526.164307 740.034180,527.172791 738.266296,528.935425 
M582.892151,477.072174 
	C583.160522,475.409332 583.428833,473.746521 583.636658,472.459137 
	C582.298645,471.294281 580.839783,470.024261 579.919983,469.223480 
	C578.420349,470.394226 576.928101,471.559265 575.922668,472.344208 
	C576.437317,474.088501 576.934326,475.772980 577.190308,476.640442 
	C579.215210,477.056458 580.812256,477.384583 582.892151,477.072174 
M655.084229,413.268890 
	C657.019653,413.530609 658.955017,413.792297 660.399353,413.987610 
	C661.132874,412.109100 661.737976,410.559601 662.281616,409.167480 
	C661.027405,408.182617 659.561707,407.031677 658.223511,405.980927 
	C657.026306,406.897736 655.477661,408.083649 653.951599,409.252289 
	C654.298706,410.060059 654.825562,411.286102 655.084229,413.268890 
M709.764771,576.486511 
	C708.258606,575.580017 706.752380,574.673584 705.812439,574.107910 
	C704.384460,575.184021 702.905518,576.298523 701.803772,577.128784 
	C702.398743,578.839722 702.976562,580.501465 703.350525,581.577087 
	C705.345825,581.783813 707.048767,581.960327 708.163818,582.075867 
	C708.956909,580.221130 709.688232,578.510925 709.764771,576.486511 
M725.891907,537.830505 
	C724.734558,538.432312 723.577148,539.034119 723.035095,539.315979 
	C723.598267,541.244690 724.096008,542.949402 724.420044,544.059204 
	C726.157288,544.059204 727.868591,544.059204 729.512146,544.059204 
	C729.982361,542.752930 730.619141,540.983704 731.054260,539.774902 
	C729.968567,538.769653 728.981079,537.702087 727.821777,536.875549 
	C727.475037,536.628296 726.648193,537.054504 725.891907,537.830505 
M677.781006,542.064819 
	C678.344971,543.943665 678.908936,545.822571 679.325562,547.210449 
	C681.124756,547.210449 682.873596,547.210449 684.391724,547.210449 
	C684.846680,545.869385 685.445679,544.103699 685.942322,542.639709 
	C684.568726,541.582520 682.942200,540.330688 681.917542,539.542053 
	C680.783752,540.354431 679.653076,541.164673 677.781006,542.064819 
M708.113159,537.329712 
	C708.706970,536.762390 709.300842,536.195129 709.618896,535.891296 
	C708.156738,534.644775 706.644348,533.355469 705.392944,532.288635 
	C704.084900,533.313293 702.567017,534.502441 701.283569,535.507874 
	C701.704346,536.859253 702.255615,538.629761 702.799072,540.375183 
	C703.890991,540.375183 705.547729,540.508911 707.150696,540.274963 
	C707.521545,540.220947 707.708923,538.909790 708.113159,537.329712 
M644.507080,539.130127 
	C644.507080,540.295044 644.507080,541.459961 644.507080,542.087769 
	C646.348633,542.087769 648.103455,542.087769 649.488708,542.087769 
	C650.210999,540.444641 650.920044,538.831604 651.344788,537.865295 
	C649.807190,536.432617 648.480347,535.196411 647.528137,534.309204 
	C646.236877,535.154236 644.834167,535.982300 643.574280,536.989075 
	C643.374390,537.148865 643.817749,538.113647 644.507080,539.130127 
M781.305725,496.165466 
	C781.431274,496.058899 781.575012,495.966919 781.676147,495.840759 
	C781.748718,495.750183 781.822998,495.528168 781.796936,495.510376 
	C780.265015,494.462555 778.722656,493.429840 777.246033,492.439148 
	C776.216797,493.235565 774.591492,494.493225 773.412537,495.405518 
	C773.843628,497.053497 774.302917,498.809204 774.681458,500.256378 
	C776.196350,500.155304 777.947327,500.038483 779.797546,499.915039 
	C780.030090,499.102264 780.368713,497.918976 781.305725,496.165466 
z"/>
<path fill="#012876" opacity="1.000000" stroke="none" 
	d="
M409.181061,335.915314 
	C427.066528,295.349457 455.265747,263.802887 493.085938,240.940018 
	C529.247498,219.079819 568.692139,209.497147 610.840149,211.192825 
	C704.560913,214.963318 785.640747,283.193726 805.951904,375.291992 
	C811.344727,399.745117 812.556763,424.398468 808.598694,449.526123 
	C767.880127,416.019073 723.366699,389.135681 674.735474,369.044037 
	C670.251160,367.191345 665.891357,365.037476 661.707764,362.738281 
	C664.691833,359.135986 667.661072,359.782013 671.042053,362.303314 
	C668.618896,358.139435 670.543030,355.582794 673.832947,353.243134 
	C669.251709,354.035126 667.037720,351.978241 666.153259,347.604431 
	C665.428284,352.232727 662.687317,353.710144 658.280151,353.521820 
	C664.511963,355.342224 661.110535,359.830566 661.325684,363.329865 
	C659.855103,363.178558 658.761475,362.784729 657.670410,362.384003 
	C603.007568,342.307343 546.549194,331.939453 488.335724,331.019684 
	C461.821716,330.600800 435.455658,332.500519 409.181061,335.915314 
z"/>
<path fill="#F8FBFA" opacity="1.000000" stroke="none" 
	d="
M661.473694,363.023468 
	C665.891357,365.037476 670.251160,367.191345 674.735474,369.044037 
	C723.366699,389.135681 767.880127,416.019073 808.514832,449.948486 
	C806.485596,460.959351 804.153625,471.840210 801.660522,483.056885 
	C785.648193,470.973511 770.341492,457.773346 753.848206,446.275299 
	C693.948669,404.517151 627.745178,378.140106 555.553772,366.835876 
	C503.245697,358.645050 451.027649,359.188141 398.437347,367.998352 
	C401.593048,357.490265 405.171051,346.996826 408.965057,336.209351 
	C435.455658,332.500519 461.821716,330.600800 488.335724,331.019684 
	C546.549194,331.939453 603.007568,342.307343 657.670410,362.384003 
	C658.761475,362.784729 659.855103,363.178558 661.273132,363.288239 
	C661.598755,363.000885 661.473694,363.023468 661.473694,363.023468 
M533.884705,340.909119 
	C532.965515,340.070923 532.128906,338.717194 531.101868,338.552826 
	C530.234619,338.414032 528.689026,339.426422 528.240356,340.326416 
	C526.768738,343.278748 525.660156,346.412079 524.384033,349.544586 
	C520.537048,345.758148 524.931152,337.576019 516.099060,337.059753 
	C515.535034,343.202271 514.906616,348.956390 514.581787,354.727631 
	C514.531555,355.620361 515.872681,356.591461 517.312866,358.521179 
	C518.007507,353.782410 518.454468,350.733368 518.901367,347.684326 
	C520.199463,350.380402 520.559204,353.018585 521.268982,355.558990 
	C521.522217,356.465515 522.562134,357.663361 523.355530,357.755157 
	C524.059814,357.836609 525.227356,356.722687 525.651001,355.868774 
	C526.720032,353.713928 527.485168,351.408295 528.372131,349.163086 
	C529.248962,351.668610 528.961365,353.815491 529.074585,355.941010 
	C529.120483,356.803436 530.039246,357.619415 530.560852,358.456512 
	C531.192444,357.682312 532.273621,356.965515 532.381042,356.124329 
	C532.991150,351.349274 533.368286,346.544434 533.884705,340.909119 
M500.269745,336.259033 
	C496.832275,336.259033 493.394806,336.259033 489.477295,336.259033 
	C489.477295,342.935486 489.477295,349.336914 489.477295,355.901520 
	C494.347321,356.123169 499.152618,356.491699 503.954407,356.450134 
	C505.087799,356.440338 506.209290,355.050507 507.336273,354.295532 
	C507.066437,353.888306 506.796600,353.481079 506.526764,353.073822 
	C501.949005,352.769775 497.371277,352.465729 492.470428,352.140198 
	C492.761047,350.143066 492.966888,348.728455 493.164459,347.370850 
	C503.709106,347.349121 503.709106,347.349121 503.420654,344.341248 
	C493.050171,343.362732 493.050171,343.362732 493.769806,339.877869 
	C497.991150,339.877869 502.266846,339.877869 506.628937,339.877869 
	C507.055237,334.759094 503.142365,337.105865 500.269745,336.259033 
M442.820923,337.347626 
	C441.026245,337.569550 439.231598,337.791473 437.045715,338.061768 
	C437.439087,344.603546 437.824097,351.006805 438.219543,357.583557 
	C439.275055,357.583557 440.691650,357.744507 440.738495,357.559143 
	C441.339233,355.183105 441.744110,352.757599 442.201569,350.345184 
	C449.819946,349.435944 449.747894,349.460663 451.364349,354.174591 
	C451.711121,355.185822 452.786865,355.947113 453.526733,356.823547 
	C453.964172,355.626953 455.018982,354.243378 454.723785,353.268768 
	C453.824768,350.300934 453.400116,347.794678 454.822083,344.611694 
	C456.411591,341.053711 453.315094,337.401672 449.187622,337.070068 
	C447.381439,336.924957 445.542603,337.186127 442.820923,337.347626 
M719.529419,401.088287 
	C717.045654,405.503998 714.561951,409.919678 712.008362,414.459564 
	C717.508423,417.566162 722.496643,420.383636 727.651978,423.295532 
	C728.274170,422.112549 729.064697,420.822937 728.971619,420.755646 
	C725.152649,417.994995 721.254272,415.344238 717.063721,412.472534 
	C717.873413,411.255402 718.712036,409.994812 719.587036,408.679504 
	C723.034607,410.549133 726.061707,412.190735 729.088867,413.832306 
	C729.509399,413.559052 729.929932,413.285767 730.350525,413.012482 
	C729.859131,411.954559 729.634766,410.562805 728.819092,409.910553 
	C727.282410,408.681671 725.199707,408.110291 723.741638,406.817261 
	C722.781494,405.965851 722.516846,404.330139 721.940796,403.045593 
	C722.406128,402.784424 722.871521,402.523254 723.336853,402.262085 
	C725.206787,403.285492 727.079285,404.304382 728.946106,405.333527 
	C730.813354,406.362915 732.674866,407.402527 734.526184,408.430603 
	C736.609314,405.013153 731.789795,401.055054 721.614685,397.550812 
	C721.053467,398.501282 720.471008,399.487701 719.529419,401.088287 
M619.435547,372.056793 
	C618.712280,375.584167 618.712280,375.584167 621.837402,376.185760 
	C622.670654,374.103302 623.503845,372.020813 624.283813,370.071472 
	C629.351257,371.076782 633.805969,372.066498 631.661682,378.635956 
	C631.324768,379.668304 632.111511,381.067383 632.378662,382.296906 
	C633.130798,381.678497 633.882935,381.060059 634.635071,380.441650 
	C635.881165,376.438232 635.598022,372.137177 638.982117,368.576752 
	C641.633423,365.787292 639.470642,362.058868 636.020142,360.514771 
	C632.448853,358.916656 628.565247,358.016541 624.541687,356.722168 
	C622.845154,361.893555 621.299866,366.604034 619.435547,372.056793 
M480.979919,342.208893 
	C477.586395,335.829742 473.450836,334.542419 463.688538,336.714996 
	C463.688538,343.149323 463.688538,349.524139 463.688538,355.830902 
	C478.576752,356.969666 481.877136,354.456390 480.979919,342.208893 
M752.496948,420.104828 
	C753.328186,421.557587 754.159485,423.010345 754.990784,424.463074 
	C758.237244,418.982971 754.890930,416.711243 751.472046,414.615143 
	C748.515381,412.802399 745.257080,411.465576 742.414612,414.602295 
	C739.286621,418.054138 741.992981,420.664581 744.160400,423.246735 
	C745.751526,425.142334 747.293396,427.079193 749.154663,429.362610 
	C740.979004,432.338501 742.217896,422.813782 737.321045,422.219360 
	C736.180359,427.992340 740.866394,433.851196 747.018860,433.935028 
	C748.841553,433.959900 751.340393,432.751526 752.319397,431.294983 
	C753.130554,430.088074 752.693665,427.388428 751.854004,425.883179 
	C750.672424,423.765045 748.491699,422.228485 746.979004,420.258362 
	C746.403992,419.509430 746.495972,418.248260 746.283936,417.220581 
	C747.359070,417.193878 748.552795,416.862579 749.477478,417.222504 
	C750.487854,417.615753 751.249451,418.648529 752.496948,420.104828 
M761.407471,445.078247 
	C762.939148,446.061005 764.419128,447.743622 766.014648,447.861511 
	C768.375366,448.035919 771.548645,447.830811 772.986145,446.395447 
	C774.061523,445.321655 773.398315,441.891815 772.663757,439.809326 
	C772.043884,438.052094 770.052551,436.825195 768.970886,435.166229 
	C768.352844,434.218445 768.339905,432.876129 768.054565,431.711487 
	C769.380249,431.885956 770.999023,431.654572 771.953003,432.343658 
	C773.006165,433.104431 773.379700,434.756714 774.178223,435.933167 
	C774.999329,437.143005 775.976013,438.247284 776.884644,439.397736 
	C777.528809,439.090973 778.172974,438.784210 778.817078,438.477448 
	C777.934692,436.139740 777.704834,432.950897 776.020325,431.659302 
	C773.339966,429.604187 769.647461,427.682220 766.461548,427.801514 
	C763.162476,427.924988 761.867249,431.400696 763.684753,434.730438 
	C764.627197,436.456940 766.296204,437.784393 767.256226,439.504547 
	C768.093445,441.004730 768.396667,442.802917 768.935913,444.469421 
	C767.082031,443.736969 765.132263,443.171600 763.421570,442.189606 
	C762.739502,441.798065 762.696838,440.412659 762.166260,439.609802 
	C761.333252,438.349396 760.333435,437.199310 759.404236,436.002502 
	C758.747253,436.406372 758.090271,436.810242 757.433289,437.214111 
	C758.574585,439.670166 759.715881,442.126221 761.407471,445.078247 
M695.531250,390.968231 
	C693.561829,394.797333 691.592468,398.626434 689.453857,402.784454 
	C695.150024,406.069946 693.598389,398.574646 696.853516,398.466675 
	C703.706787,401.668121 703.634827,401.653473 702.663025,406.422424 
	C702.449890,407.468048 702.949097,408.658813 703.120239,409.782715 
	C704.075439,408.964661 705.278809,408.306793 705.932312,407.294067 
	C707.165588,405.382843 707.624695,402.750427 709.220215,401.337952 
	C713.289185,397.735718 713.331543,393.064331 708.617676,390.249847 
	C705.505981,388.391998 702.147888,386.946991 698.593140,385.163086 
	C697.565430,387.115173 696.728760,388.704315 695.531250,390.968231 
M669.329895,386.029877 
	C669.221497,392.141571 671.440796,395.615875 676.043518,396.787323 
	C678.187073,397.332855 680.269592,398.118500 682.885925,398.957642 
	C683.998840,396.618652 685.396423,393.681427 686.958008,390.399506 
	C684.294250,389.471558 681.937927,388.650665 678.224121,387.356903 
	C679.495361,389.857086 680.039429,390.927246 680.642273,392.112823 
	C677.559875,393.777344 674.941467,393.424805 673.559692,390.202698 
	C672.035156,386.647552 673.349670,383.597626 676.638184,381.713165 
	C679.448486,380.102692 681.610718,381.122559 683.292114,383.876801 
	C684.071106,385.152863 685.495972,386.034637 687.292786,387.717865 
	C686.853638,381.028961 684.813171,378.228821 680.581299,377.329163 
	C675.999756,376.355164 671.889160,379.321655 669.329895,386.029877 
M594.841980,365.200165 
	C594.129944,367.396271 592.823425,369.883606 597.247925,369.774536 
	C597.933350,367.584167 598.612610,365.413422 599.349060,363.060120 
	C601.972534,363.725861 604.334412,364.466187 606.751038,364.905975 
	C610.529297,365.593536 613.476562,364.250549 614.489502,360.411682 
	C615.500488,356.579895 613.685791,353.943268 609.949158,352.804901 
	C606.488647,351.750580 602.967529,350.895233 599.601990,349.987061 
	C599.180969,350.509949 598.881348,350.725922 598.801086,351.004944 
	C597.516541,355.470978 596.260010,359.945068 594.841980,365.200165 
M429.677399,348.829742 
	C427.858643,342.278534 424.650574,339.402252 419.644287,339.834198 
	C415.324188,340.206940 412.049011,343.883698 411.777924,348.665192 
	C411.450775,354.434479 415.209167,359.264343 420.327484,359.652222 
	C425.337799,360.031860 428.692657,356.452606 429.677399,348.829742 
M571.375854,349.695068 
	C574.094055,348.116669 574.208679,346.731903 570.916504,346.052917 
	C567.041138,345.253632 563.113281,344.709198 558.765015,343.979919 
	C557.747009,350.084320 556.783875,355.859070 555.815491,361.665680 
	C560.261841,362.488800 563.996155,363.308929 567.773621,363.790710 
	C568.742676,363.914337 569.847961,362.970245 570.890625,362.516663 
	C570.015686,361.785034 569.245178,360.665985 568.245728,360.396698 
	C565.566406,359.674835 562.789001,359.316864 559.739136,358.757263 
	C561.336975,351.073456 566.713989,357.546814 569.532776,355.451660 
	C569.567078,353.814331 569.567078,353.814331 561.279541,350.358673 
	C562.723694,348.149353 562.723694,348.149353 571.375854,349.695068 
M780.641724,450.584778 
	C778.835266,457.860809 781.522522,462.724335 787.561951,463.109406 
	C792.270325,463.409576 796.702942,460.233398 798.041809,455.599945 
	C799.341125,451.103516 797.717224,446.886169 793.935974,444.936615 
	C789.973511,442.893646 785.581543,444.086426 782.037537,448.201538 
	C781.610779,448.697113 781.315857,449.306366 780.641724,450.584778 
M663.351746,375.837311 
	C662.819641,371.137604 660.423279,368.100281 655.562378,367.592865 
	C650.670837,367.082245 646.217590,371.051941 645.303162,376.498993 
	C644.523254,381.144958 647.484131,385.951202 651.739807,386.947418 
	C656.398010,388.037811 661.362915,385.003510 662.907837,380.027069 
	C663.247498,378.933197 663.253723,377.735809 663.351746,375.837311 
z"/>
<path fill="#EDEFF5" opacity="1.000000" stroke="none" 
	d="
M512.865112,538.657837 
	C512.089050,535.835510 514.234497,531.855957 510.032684,530.863831 
	C512.226196,529.313232 514.653076,527.597656 517.374634,525.673767 
	C518.342896,527.136597 518.729187,531.935486 524.181580,530.397644 
	C522.864929,531.454956 521.548279,532.512207 520.258911,533.547668 
	C520.687012,535.352356 521.086060,537.034546 521.648071,539.403564 
	C519.699036,538.054626 518.366516,537.132446 516.818848,536.061340 
	C515.611755,536.859131 514.406128,537.655945 512.865112,538.657837 
z"/>
<path fill="#DFE4EE" opacity="1.000000" stroke="none" 
	d="
M604.936096,516.407471 
	C605.119385,518.321472 605.472656,519.900208 605.947876,522.023682 
	C604.132507,520.930969 602.691528,520.063660 600.970947,519.027954 
	C599.613831,519.923828 598.137451,520.898499 597.265198,521.474304 
	C596.418823,518.579468 595.552368,515.615906 594.658203,512.557495 
	C597.550293,513.120544 600.244080,511.855133 600.386169,506.252045 
	C602.582764,510.168579 603.333984,514.573120 608.565125,512.946594 
	C607.412109,513.988464 606.259094,515.030334 604.936096,516.407471 
z"/>
<path fill="#E9EDF3" opacity="1.000000" stroke="none" 
	d="
M425.243103,380.465302 
	C427.051910,378.892456 428.463593,377.322205 429.835358,375.796295 
	C430.829681,378.550934 432.108185,381.952820 437.189728,380.854431 
	C435.832336,382.086090 434.474945,383.317749 433.084808,384.579102 
	C433.529968,386.159485 433.971130,387.725739 434.639709,390.099335 
	C432.645569,388.881256 431.237762,388.021301 429.536682,386.982208 
	C428.200134,387.863281 426.741028,388.825104 424.674774,390.187164 
	C425.780243,386.254852 427.196289,382.615723 422.283447,380.611481 
	C423.137634,380.563629 423.991821,380.515747 425.243103,380.465302 
z"/>
<path fill="#EDEFF5" opacity="1.000000" stroke="none" 
	d="
M746.744263,490.002319 
	C747.274963,488.650146 747.686829,487.647919 748.286011,486.189667 
	C749.092041,488.432892 749.686462,490.087128 750.340332,491.906830 
	C752.119446,491.906830 753.754028,491.906830 754.768860,491.906830 
	C753.718323,494.665985 752.658325,497.449921 751.587280,500.262878 
	C749.529846,498.413483 746.434448,497.989197 742.944031,502.647064 
	C744.062866,497.959930 746.036255,494.121490 740.330994,492.960907 
	C742.825562,491.927032 744.725464,491.139648 746.744263,490.002319 
z"/>
<path fill="#EDEFF5" opacity="1.000000" stroke="none" 
	d="
M444.682617,477.632141 
	C444.277374,476.147339 444.195862,474.427551 444.092407,472.244202 
	C443.264099,471.580139 442.001923,470.568176 441.471985,470.143311 
	C443.953033,468.234528 446.438385,466.322418 448.752930,464.541748 
	C449.088287,467.512726 450.883911,469.954926 454.713531,468.949524 
	C453.707123,471.560913 452.657959,474.283173 451.492554,477.307159 
	C451.166443,477.110809 449.762848,476.265686 448.149506,475.294250 
	C447.180603,475.942474 446.093475,476.669830 444.682617,477.632141 
z"/>
<path fill="#E5E9F1" opacity="1.000000" stroke="none" 
	d="
M524.480347,432.538208 
	C524.757263,433.339081 524.869568,433.812744 524.893799,433.915039 
	C522.463562,433.915039 519.956726,433.915039 517.839783,433.915039 
	C517.258179,432.162933 516.443787,429.709442 515.782166,427.716187 
	C517.311523,426.704620 519.297302,425.391174 521.177612,424.147522 
	C522.378235,425.093842 524.249634,426.568817 526.312988,428.195099 
	C525.969604,428.885559 525.142639,430.548279 524.480347,432.538208 
z"/>
<path fill="#DFE4EE" opacity="1.000000" stroke="none" 
	d="
M603.216187,451.972809 
	C604.686279,452.145996 605.830811,452.145996 606.533936,452.145996 
	C605.690369,454.572205 604.852356,456.982574 604.143188,459.022339 
	C602.369080,459.022339 599.974487,459.022339 597.836914,459.022339 
	C597.276550,457.355255 596.467957,454.949738 595.728088,452.748657 
	C597.136780,451.907349 599.159180,450.699585 601.554810,449.268890 
	C601.653809,449.456451 602.272278,450.628052 603.216187,451.972809 
z"/>
<path fill="#E9EDF3" opacity="1.000000" stroke="none" 
	d="
M624.082764,469.360107 
	C624.501282,468.418457 624.822876,467.853363 624.903809,467.711212 
	C626.782288,469.175598 628.640930,470.624481 630.527954,472.095520 
	C629.992493,473.477814 629.083557,475.824341 628.277588,477.905121 
	C626.520508,477.905121 624.087158,477.905121 621.957825,477.905121 
	C621.466309,476.204559 620.742004,473.698608 620.078735,471.403717 
	C621.002930,471.009369 622.494385,470.373016 624.082764,469.360107 
z"/>
<path fill="#E9EDF3" opacity="1.000000" stroke="none" 
	d="
M426.128937,494.939514 
	C423.739838,494.939514 421.350739,494.939514 419.111694,494.939514 
	C418.675995,493.232788 418.068970,490.854706 417.507294,488.654358 
	C418.876129,487.628113 420.897766,486.112427 422.512024,484.902161 
	C423.819061,485.973938 425.679138,487.499176 427.472504,488.969727 
	C427.160645,490.133423 426.617279,492.160950 426.065002,494.578796 
	C426.056122,494.969147 426.128937,494.939514 426.128937,494.939514 
z"/>
<path fill="#EDEFF5" opacity="1.000000" stroke="none" 
	d="
M486.174866,491.136230 
	C487.978882,489.622925 490.032074,488.340057 491.990784,487.116241 
	C493.178101,488.026398 495.112396,489.509125 496.937286,490.907990 
	C496.422516,492.418396 495.628021,494.749573 494.925415,496.811157 
	C493.227142,496.811157 490.735870,496.811157 488.928558,496.811157 
	C488.170197,495.162537 487.297150,493.264618 486.174866,491.136230 
z"/>
<path fill="#EDEFF5" opacity="1.000000" stroke="none" 
	d="
M658.174927,561.136230 
	C659.559021,559.009338 664.614929,561.161621 663.111633,556.442444 
	C665.182861,558.030090 667.127808,559.520874 668.937378,560.907898 
	C668.422546,562.418579 667.628113,564.749695 666.925476,566.811279 
	C665.225647,566.811279 662.733215,566.811279 660.928467,566.811279 
	C660.170105,565.162598 659.297119,563.264648 658.174927,561.136230 
z"/>
<path fill="#EDEFF5" opacity="1.000000" stroke="none" 
	d="
M711.247192,556.493530 
	C710.360901,558.454712 709.715393,560.182373 709.178040,561.620544 
	C707.355469,561.620544 704.869324,561.620544 702.912659,561.620544 
	C702.365601,559.822754 701.645020,557.454468 701.142883,555.804199 
	C702.814209,554.469116 704.728394,552.940063 705.766846,552.110535 
	C707.857361,553.144348 709.919006,554.160034 711.971924,555.192871 
	C712.054199,555.234253 712.127258,555.486694 712.079895,555.558105 
	C711.911865,555.811523 711.689697,556.028931 711.247192,556.493530 
z"/>
<path fill="#E9EDF3" opacity="1.000000" stroke="none" 
	d="
M752.335999,510.967407 
	C754.137390,509.781677 755.564453,508.603271 756.657166,507.700928 
	C757.896484,508.773987 759.744995,510.374481 761.693909,512.061890 
	C761.292786,513.236328 760.529175,515.472046 759.733887,517.800476 
	C758.384827,517.680420 755.959167,517.464600 753.976746,517.288208 
	C753.077698,515.714905 751.956726,513.783264 750.913574,511.810425 
	C750.874756,511.737091 751.595032,511.262390 752.335999,510.967407 
z"/>
<path fill="#E9EDF3" opacity="1.000000" stroke="none" 
	d="
M738.188171,528.558350 
	C740.034180,527.172791 741.958313,526.164307 743.882446,525.155884 
	C743.666565,524.740234 743.450684,524.324585 743.234802,523.908875 
	C745.162292,525.566833 747.089783,527.224792 748.895569,528.778015 
	C748.400085,530.264221 747.638794,532.547668 746.922607,534.695862 
	C745.463196,534.568542 743.116333,534.363831 740.821655,534.163635 
	C740.243774,532.981262 739.255005,530.958374 738.188171,528.558350 
z"/>
<path fill="#E9EDF3" opacity="1.000000" stroke="none" 
	d="
M582.650757,477.392456 
	C580.812256,477.384583 579.215210,477.056458 577.190308,476.640442 
	C576.934326,475.772980 576.437317,474.088501 575.922668,472.344208 
	C576.928101,471.559265 578.420349,470.394226 579.919983,469.223480 
	C580.839783,470.024261 582.298645,471.294281 583.636658,472.459137 
	C583.428833,473.746521 583.160522,475.409332 582.650757,477.392456 
z"/>
<path fill="#D8DEEA" opacity="1.000000" stroke="none" 
	d="
M655.218262,412.890503 
	C654.825562,411.286102 654.298706,410.060059 653.951599,409.252289 
	C655.477661,408.083649 657.026306,406.897736 658.223511,405.980927 
	C659.561707,407.031677 661.027405,408.182617 662.281616,409.167480 
	C661.737976,410.559601 661.132874,412.109100 660.399353,413.987610 
	C658.955017,413.792297 657.019653,413.530609 655.218262,412.890503 
z"/>
<path fill="#D8DEEA" opacity="1.000000" stroke="none" 
	d="
M710.092163,576.643677 
	C709.688232,578.510925 708.956909,580.221130 708.163818,582.075867 
	C707.048767,581.960327 705.345825,581.783813 703.350525,581.577087 
	C702.976562,580.501465 702.398743,578.839722 701.803772,577.128784 
	C702.905518,576.298523 704.384460,575.184021 705.812439,574.107910 
	C706.752380,574.673584 708.258606,575.580017 710.092163,576.643677 
z"/>
<path fill="#D8DEEA" opacity="1.000000" stroke="none" 
	d="
M482.674438,516.600037 
	C482.238007,514.896057 481.801575,513.192139 481.392273,511.594086 
	C482.571075,510.895569 484.174011,509.945770 485.751831,509.010834 
	C486.732941,509.693695 488.290131,510.777527 489.843536,511.858704 
	C489.398926,513.127197 488.731750,515.030762 488.037598,517.011108 
	C487.028076,517.011108 485.366608,517.011108 483.275024,516.910889 
	C482.844971,516.810730 482.674438,516.600037 482.674438,516.600037 
z"/>
<path fill="#EDEFF5" opacity="1.000000" stroke="none" 
	d="
M725.966553,537.501343 
	C726.648193,537.054504 727.475037,536.628296 727.821777,536.875549 
	C728.981079,537.702087 729.968567,538.769653 731.054260,539.774902 
	C730.619141,540.983704 729.982361,542.752930 729.512146,544.059204 
	C727.868591,544.059204 726.157288,544.059204 724.420044,544.059204 
	C724.096008,542.949402 723.598267,541.244690 723.035095,539.315979 
	C723.577148,539.034119 724.734558,538.432312 725.966553,537.501343 
z"/>
<path fill="#EDEFF5" opacity="1.000000" stroke="none" 
	d="
M678.151672,542.019897 
	C679.653076,541.164673 680.783752,540.354431 681.917542,539.542053 
	C682.942200,540.330688 684.568726,541.582520 685.942322,542.639709 
	C685.445679,544.103699 684.846680,545.869385 684.391724,547.210449 
	C682.873596,547.210449 681.124756,547.210449 679.325562,547.210449 
	C678.908936,545.822571 678.344971,543.943665 678.151672,542.019897 
z"/>
<path fill="#E5E9F1" opacity="1.000000" stroke="none" 
	d="
M708.046936,537.753418 
	C707.708923,538.909790 707.521545,540.220947 707.150696,540.274963 
	C705.547729,540.508911 703.890991,540.375183 702.799072,540.375183 
	C702.255615,538.629761 701.704346,536.859253 701.283569,535.507874 
	C702.567017,534.502441 704.084900,533.313293 705.392944,532.288635 
	C706.644348,533.355469 708.156738,534.644775 709.618896,535.891296 
	C709.300842,536.195129 708.706970,536.762390 708.046936,537.753418 
z"/>
<path fill="#E5E9F1" opacity="1.000000" stroke="none" 
	d="
M644.235352,538.918213 
	C643.817749,538.113647 643.374390,537.148865 643.574280,536.989075 
	C644.834167,535.982300 646.236877,535.154236 647.528137,534.309204 
	C648.480347,535.196411 649.807190,536.432617 651.344788,537.865295 
	C650.920044,538.831604 650.210999,540.444641 649.488708,542.087769 
	C648.103455,542.087769 646.348633,542.087769 644.507080,542.087769 
	C644.507080,541.459961 644.507080,540.295044 644.235352,538.918213 
z"/>
<path fill="#E5E9F1" opacity="1.000000" stroke="none" 
	d="
M781.006470,496.450562 
	C780.368713,497.918976 780.030090,499.102264 779.797546,499.915039 
	C777.947327,500.038483 776.196350,500.155304 774.681458,500.256378 
	C774.302917,498.809204 773.843628,497.053497 773.412537,495.405518 
	C774.591492,494.493225 776.216797,493.235565 777.246033,492.439148 
	C778.722656,493.429840 780.265015,494.462555 781.796936,495.510376 
	C781.822998,495.528168 781.748718,495.750183 781.676147,495.840759 
	C781.575012,495.966919 781.431274,496.058899 781.006470,496.450562 
z"/>
<path fill="#D8DEEA" opacity="1.000000" stroke="none" 
	d="
M482.931152,516.915344 
	C482.852722,517.249939 482.688110,517.479980 482.523468,517.709961 
	C482.461548,517.441406 482.399628,517.172791 482.506042,516.752136 
	C482.674438,516.600037 482.844971,516.810730 482.931152,516.915344 
z"/>
<path fill="#E9EDF3" opacity="1.000000" stroke="none" 
	d="
M426.022217,494.989075 
	C426.126343,495.225983 426.264343,495.442902 426.402344,495.659851 
	C426.182129,495.512878 425.961945,495.365875 425.935333,495.079224 
	C426.128937,494.939514 426.056122,494.969147 426.022217,494.989075 
z"/>
<path fill="#EDEFF5" opacity="1.000000" stroke="none" 
	d="
M661.707764,362.738281 
	C661.473694,363.023468 661.598755,363.000885 661.651245,363.042511 
	C661.110535,359.830566 664.511963,355.342224 658.280151,353.521820 
	C662.687317,353.710144 665.428284,352.232727 666.153259,347.604431 
	C667.037720,351.978241 669.251709,354.035126 673.832947,353.243134 
	C670.543030,355.582794 668.618896,358.139435 671.042053,362.303314 
	C667.661072,359.782013 664.691833,359.135986 661.707764,362.738281 
z"/>
<path fill="#13A349" opacity="1.000000" stroke="none" 
	d="
M533.854675,341.329407 
	C533.368286,346.544434 532.991150,351.349274 532.381042,356.124329 
	C532.273621,356.965515 531.192444,357.682312 530.560852,358.456512 
	C530.039246,357.619415 529.120483,356.803436 529.074585,355.941010 
	C528.961365,353.815491 529.248962,351.668610 528.372131,349.163086 
	C527.485168,351.408295 526.720032,353.713928 525.651001,355.868774 
	C525.227356,356.722687 524.059814,357.836609 523.355530,357.755157 
	C522.562134,357.663361 521.522217,356.465515 521.268982,355.558990 
	C520.559204,353.018585 520.199463,350.380402 518.901367,347.684326 
	C518.454468,350.733368 518.007507,353.782410 517.312866,358.521179 
	C515.872681,356.591461 514.531555,355.620361 514.581787,354.727631 
	C514.906616,348.956390 515.535034,343.202271 516.099060,337.059753 
	C524.931152,337.576019 520.537048,345.758148 524.384033,349.544586 
	C525.660156,346.412079 526.768738,343.278748 528.240356,340.326416 
	C528.689026,339.426422 530.234619,338.414032 531.101868,338.552826 
	C532.128906,338.717194 532.965515,340.070923 533.854675,341.329407 
z"/>
<path fill="#13A349" opacity="1.000000" stroke="none" 
	d="
M500.727417,336.272705 
	C503.142365,337.105865 507.055237,334.759094 506.628937,339.877869 
	C502.266846,339.877869 497.991150,339.877869 493.769806,339.877869 
	C493.050171,343.362732 493.050171,343.362732 503.420654,344.341248 
	C503.709106,347.349121 503.709106,347.349121 493.164459,347.370850 
	C492.966888,348.728455 492.761047,350.143066 492.470428,352.140198 
	C497.371277,352.465729 501.949005,352.769775 506.526764,353.073822 
	C506.796600,353.481079 507.066437,353.888306 507.336273,354.295532 
	C506.209290,355.050507 505.087799,356.440338 503.954407,356.450134 
	C499.152618,356.491699 494.347321,356.123169 489.477295,355.901520 
	C489.477295,349.336914 489.477295,342.935486 489.477295,336.259033 
	C493.394806,336.259033 496.832275,336.259033 500.727417,336.272705 
z"/>
<path fill="#13A349" opacity="1.000000" stroke="none" 
	d="
M443.269775,337.305206 
	C445.542603,337.186127 447.381439,336.924957 449.187622,337.070068 
	C453.315094,337.401672 456.411591,341.053711 454.822083,344.611694 
	C453.400116,347.794678 453.824768,350.300934 454.723785,353.268768 
	C455.018982,354.243378 453.964172,355.626953 453.526733,356.823547 
	C452.786865,355.947113 451.711121,355.185822 451.364349,354.174591 
	C449.747894,349.460663 449.819946,349.435944 442.200104,350.344910 
	C441.744110,352.757599 441.339233,355.183105 440.738495,357.559143 
	C440.691650,357.744507 439.275055,357.583557 438.219543,357.583557 
	C437.824097,351.006805 437.439087,344.603546 437.045715,338.061768 
	C439.231598,337.791473 441.026245,337.569550 443.269775,337.305206 
M446.344269,340.980042 
	C444.604248,341.086670 442.864197,341.193329 440.819061,341.318634 
	C441.053558,343.320984 441.216705,344.714111 441.365082,345.981110 
	C443.583832,345.981110 445.462219,346.281921 447.179718,345.885590 
	C448.545685,345.570374 449.715057,344.403198 450.971710,343.614227 
	C449.723297,342.723572 448.474884,341.832916 446.344269,340.980042 
z"/>
<path fill="#13A349" opacity="1.000000" stroke="none" 
	d="
M719.708984,400.781189 
	C720.471008,399.487701 721.053467,398.501282 721.614685,397.550812 
	C731.789795,401.055054 736.609314,405.013153 734.526184,408.430603 
	C732.674866,407.402527 730.813354,406.362915 728.946106,405.333527 
	C727.079285,404.304382 725.206787,403.285492 723.336853,402.262085 
	C722.871521,402.523254 722.406128,402.784424 721.940796,403.045593 
	C722.516846,404.330139 722.781494,405.965851 723.741638,406.817261 
	C725.199707,408.110291 727.282410,408.681671 728.819092,409.910553 
	C729.634766,410.562805 729.859131,411.954559 730.350525,413.012482 
	C729.929932,413.285767 729.509399,413.559052 729.088867,413.832306 
	C726.061707,412.190735 723.034607,410.549133 719.587036,408.679504 
	C718.712036,409.994812 717.873413,411.255402 717.063721,412.472534 
	C721.254272,415.344238 725.152649,417.994995 728.971619,420.755646 
	C729.064697,420.822937 728.274170,422.112549 727.651978,423.295532 
	C722.496643,420.383636 717.508423,417.566162 712.008362,414.459564 
	C714.561951,409.919678 717.045654,405.503998 719.708984,400.781189 
z"/>
<path fill="#11A247" opacity="1.000000" stroke="none" 
	d="
M619.595032,371.685669 
	C621.299866,366.604034 622.845154,361.893555 624.541687,356.722168 
	C628.565247,358.016541 632.448853,358.916656 636.020142,360.514771 
	C639.470642,362.058868 641.633423,365.787292 638.982117,368.576752 
	C635.598022,372.137177 635.881165,376.438232 634.635071,380.441650 
	C633.882935,381.060059 633.130798,381.678497 632.378662,382.296906 
	C632.111511,381.067383 631.324768,379.668304 631.661682,378.635956 
	C633.805969,372.066498 629.351257,371.076782 624.283813,370.071472 
	C623.503845,372.020813 622.670654,374.103302 621.832275,376.190491 
	C618.712280,375.584167 618.712280,375.584167 619.595032,371.685669 
M629.518738,367.656158 
	C630.151672,367.822754 630.830750,368.223358 631.408508,368.109619 
	C632.829773,367.829834 634.204407,367.313477 635.597839,366.892273 
	C634.625000,365.649536 633.888062,363.997101 632.620056,363.267120 
	C631.008667,362.339417 628.966858,362.159576 627.058350,361.643188 
	C625.214844,364.558685 624.745789,366.693695 629.518738,367.656158 
z"/>
<path fill="#14A34A" opacity="1.000000" stroke="none" 
	d="
M481.042786,342.624695 
	C481.877136,354.456390 478.576752,356.969666 463.688538,355.830902 
	C463.688538,349.524139 463.688538,343.149323 463.688538,336.714996 
	C473.450836,334.542419 477.586395,335.829742 481.042786,342.624695 
M473.851349,340.059265 
	C471.635773,340.059265 469.420227,340.059265 467.316681,340.059265 
	C467.316681,344.404388 467.316681,348.141327 467.316681,352.037933 
	C471.315948,352.253784 475.466614,353.429779 477.403992,348.836395 
	C478.812927,345.495819 478.065887,342.343079 473.851349,340.059265 
z"/>
<path fill="#11A247" opacity="1.000000" stroke="none" 
	d="
M752.308228,419.753723 
	C751.249451,418.648529 750.487854,417.615753 749.477478,417.222504 
	C748.552795,416.862579 747.359070,417.193878 746.283936,417.220581 
	C746.495972,418.248260 746.403992,419.509430 746.979004,420.258362 
	C748.491699,422.228485 750.672424,423.765045 751.854004,425.883179 
	C752.693665,427.388428 753.130554,430.088074 752.319397,431.294983 
	C751.340393,432.751526 748.841553,433.959900 747.018860,433.935028 
	C740.866394,433.851196 736.180359,427.992340 737.321045,422.219360 
	C742.217896,422.813782 740.979004,432.338501 749.154663,429.362610 
	C747.293396,427.079193 745.751526,425.142334 744.160400,423.246735 
	C741.992981,420.664581 739.286621,418.054138 742.414612,414.602295 
	C745.257080,411.465576 748.515381,412.802399 751.472046,414.615143 
	C754.890930,416.711243 758.237244,418.982971 754.990784,424.463074 
	C754.159485,423.010345 753.328186,421.557587 752.308228,419.753723 
z"/>
<path fill="#11A247" opacity="1.000000" stroke="none" 
	d="
M761.132324,444.830261 
	C759.715881,442.126221 758.574585,439.670166 757.433289,437.214111 
	C758.090271,436.810242 758.747253,436.406372 759.404236,436.002502 
	C760.333435,437.199310 761.333252,438.349396 762.166260,439.609802 
	C762.696838,440.412659 762.739502,441.798065 763.421570,442.189606 
	C765.132263,443.171600 767.082031,443.736969 768.935913,444.469421 
	C768.396667,442.802917 768.093445,441.004730 767.256226,439.504547 
	C766.296204,437.784393 764.627197,436.456940 763.684753,434.730438 
	C761.867249,431.400696 763.162476,427.924988 766.461548,427.801514 
	C769.647461,427.682220 773.339966,429.604187 776.020325,431.659302 
	C777.704834,432.950897 777.934692,436.139740 778.817078,438.477448 
	C778.172974,438.784210 777.528809,439.090973 776.884644,439.397736 
	C775.976013,438.247284 774.999329,437.143005 774.178223,435.933167 
	C773.379700,434.756714 773.006165,433.104431 771.953003,432.343658 
	C770.999023,431.654572 769.380249,431.885956 768.054565,431.711487 
	C768.339905,432.876129 768.352844,434.218445 768.970886,435.166229 
	C770.052551,436.825195 772.043884,438.052094 772.663757,439.809326 
	C773.398315,441.891815 774.061523,445.321655 772.986145,446.395447 
	C771.548645,447.830811 768.375366,448.035919 766.014648,447.861511 
	C764.419128,447.743622 762.939148,446.061005 761.132324,444.830261 
z"/>
<path fill="#0EA145" opacity="1.000000" stroke="none" 
	d="
M695.711670,390.630859 
	C696.728760,388.704315 697.565430,387.115173 698.593140,385.163086 
	C702.147888,386.946991 705.505981,388.391998 708.617676,390.249847 
	C713.331543,393.064331 713.289185,397.735718 709.220215,401.337952 
	C707.624695,402.750427 707.165588,405.382843 705.932312,407.294067 
	C705.278809,408.306793 704.075439,408.964661 703.120239,409.782715 
	C702.949097,408.658813 702.449890,407.468048 702.663025,406.422424 
	C703.634827,401.653473 703.706787,401.668121 696.853516,398.466675 
	C693.598389,398.574646 695.150024,406.069946 689.453857,402.784454 
	C691.592468,398.626434 693.561829,394.797333 695.711670,390.630859 
M698.069153,394.236206 
	C700.012634,395.412659 701.851135,396.873352 703.943604,397.646301 
	C704.999939,398.036499 706.516235,397.181274 707.824585,396.889191 
	C707.176758,395.588196 706.842224,393.886017 705.808655,393.078918 
	C704.204590,391.826263 702.124451,391.183289 700.081604,390.202942 
	C699.329163,391.504028 698.763245,392.482574 698.069153,394.236206 
z"/>
<path fill="#13A349" opacity="1.000000" stroke="none" 
	d="
M669.444519,385.656616 
	C671.889160,379.321655 675.999756,376.355164 680.581299,377.329163 
	C684.813171,378.228821 686.853638,381.028961 687.292786,387.717865 
	C685.495972,386.034637 684.071106,385.152863 683.292114,383.876801 
	C681.610718,381.122559 679.448486,380.102692 676.638184,381.713165 
	C673.349670,383.597626 672.035156,386.647552 673.559692,390.202698 
	C674.941467,393.424805 677.559875,393.777344 680.642273,392.112823 
	C680.039429,390.927246 679.495361,389.857086 678.224121,387.356903 
	C681.937927,388.650665 684.294250,389.471558 686.958008,390.399506 
	C685.396423,393.681427 683.998840,396.618652 682.885925,398.957642 
	C680.269592,398.118500 678.187073,397.332855 676.043518,396.787323 
	C671.440796,395.615875 669.221497,392.141571 669.444519,385.656616 
z"/>
<path fill="#13A349" opacity="1.000000" stroke="none" 
	d="
M594.919556,364.808716 
	C596.260010,359.945068 597.516541,355.470978 598.801086,351.004944 
	C598.881348,350.725922 599.180969,350.509949 599.601990,349.987061 
	C602.967529,350.895233 606.488647,351.750580 609.949158,352.804901 
	C613.685791,353.943268 615.500488,356.579895 614.489502,360.411682 
	C613.476562,364.250549 610.529297,365.593536 606.751038,364.905975 
	C604.334412,364.466187 601.972534,363.725861 599.349060,363.060120 
	C598.612610,365.413422 597.933350,367.584167 597.247925,369.774536 
	C592.823425,369.883606 594.129944,367.396271 594.919556,364.808716 
M600.444580,358.353546 
	C602.970032,359.276276 605.449524,360.419342 608.054138,360.962616 
	C608.683899,361.093994 609.726990,359.243774 610.580017,358.304810 
	C608.315369,357.206726 606.127075,355.832672 603.741272,355.172424 
	C602.988953,354.964264 601.707397,356.668488 600.444580,358.353546 
z"/>
<path fill="#14A34A" opacity="1.000000" stroke="none" 
	d="
M429.711182,349.217285 
	C428.692657,356.452606 425.337799,360.031860 420.327484,359.652222 
	C415.209167,359.264343 411.450775,354.434479 411.777924,348.665192 
	C412.049011,343.883698 415.324188,340.206940 419.644287,339.834198 
	C424.650574,339.402252 427.858643,342.278534 429.711182,349.217285 
M418.370605,355.073151 
	C421.243988,356.783508 424.077454,355.954926 424.832458,353.158844 
	C425.491119,350.719666 424.805420,347.519836 423.653931,345.176880 
	C423.164215,344.180450 418.590973,343.757874 418.254913,344.373810 
	C416.985718,346.700104 416.547424,349.537323 416.136444,352.234863 
	C416.029907,352.933929 417.154144,353.820557 418.370605,355.073151 
z"/>
<path fill="#14A34A" opacity="1.000000" stroke="none" 
	d="
M570.986450,349.620209 
	C562.723694,348.149353 562.723694,348.149353 561.279541,350.358673 
	C569.567078,353.814331 569.567078,353.814331 569.532776,355.451660 
	C566.713989,357.546814 561.336975,351.073456 559.739136,358.757263 
	C562.789001,359.316864 565.566406,359.674835 568.245728,360.396698 
	C569.245178,360.665985 570.015686,361.785034 570.890625,362.516663 
	C569.847961,362.970245 568.742676,363.914337 567.773621,363.790710 
	C563.996155,363.308929 560.261841,362.488800 555.815491,361.665680 
	C556.783875,355.859070 557.747009,350.084320 558.765015,343.979919 
	C563.113281,344.709198 567.041138,345.253632 570.916504,346.052917 
	C574.208679,346.731903 574.094055,348.116669 570.986450,349.620209 
z"/>
<path fill="#10A146" opacity="1.000000" stroke="none" 
	d="
M780.800781,450.223816 
	C781.315857,449.306366 781.610779,448.697113 782.037537,448.201538 
	C785.581543,444.086426 789.973511,442.893646 793.935974,444.936615 
	C797.717224,446.886169 799.341125,451.103516 798.041809,455.599945 
	C796.702942,460.233398 792.270325,463.409576 787.561951,463.109406 
	C781.522522,462.724335 778.835266,457.860809 780.800781,450.223816 
M784.346558,451.332275 
	C784.702820,453.730652 784.404541,456.611511 785.675537,458.335693 
	C786.371216,459.279419 790.045288,458.903412 791.799011,458.000854 
	C794.999512,456.353638 795.903564,451.713806 793.681641,449.527771 
	C790.457214,446.355499 787.454407,447.621063 784.346558,451.332275 
z"/>
<path fill="#10A146" opacity="1.000000" stroke="none" 
	d="
M663.382629,376.211700 
	C663.253723,377.735809 663.247498,378.933197 662.907837,380.027069 
	C661.362915,385.003510 656.398010,388.037811 651.739807,386.947418 
	C647.484131,385.951202 644.523254,381.144958 645.303162,376.498993 
	C646.217590,371.051941 650.670837,367.082245 655.562378,367.592865 
	C660.423279,368.100281 662.819641,371.137604 663.382629,376.211700 
M650.042603,381.487000 
	C652.388123,384.070587 655.473083,384.295197 657.266174,381.732697 
	C658.705322,379.675964 658.935364,376.406403 658.719177,373.755157 
	C658.642578,372.816254 655.504822,371.222870 654.039612,371.482239 
	C650.568726,372.096588 648.944885,374.850769 649.039185,378.410553 
	C649.060120,379.201569 649.433228,379.983246 650.042603,381.487000 
z"/>
<path fill="#F8FBFA" opacity="1.000000" stroke="none" 
	d="
M446.785400,340.961121 
	C448.474884,341.832916 449.723297,342.723572 450.971710,343.614227 
	C449.715057,344.403198 448.545685,345.570374 447.179718,345.885590 
	C445.462219,346.281921 443.583832,345.981110 441.365082,345.981110 
	C441.216705,344.714111 441.053558,343.320984 440.819061,341.318634 
	C442.864197,341.193329 444.604248,341.086670 446.785400,340.961121 
z"/>
<path fill="#ECF8F0" opacity="1.000000" stroke="none" 
	d="
M629.157471,367.495697 
	C624.745789,366.693695 625.214844,364.558685 627.058350,361.643188 
	C628.966858,362.159576 631.008667,362.339417 632.620056,363.267120 
	C633.888062,363.997101 634.625000,365.649536 635.597839,366.892273 
	C634.204407,367.313477 632.829773,367.829834 631.408508,368.109619 
	C630.830750,368.223358 630.151672,367.822754 629.157471,367.495697 
z"/>
<path fill="#F8FBFA" opacity="1.000000" stroke="none" 
	d="
M474.257080,340.177063 
	C478.065887,342.343079 478.812927,345.495819 477.403992,348.836395 
	C475.466614,353.429779 471.315948,352.253784 467.316681,352.037933 
	C467.316681,348.141327 467.316681,344.404388 467.316681,340.059265 
	C469.420227,340.059265 471.635773,340.059265 474.257080,340.177063 
z"/>
<path fill="#ECF8F0" opacity="1.000000" stroke="none" 
	d="
M698.133240,393.848694 
	C698.763245,392.482574 699.329163,391.504028 700.081604,390.202942 
	C702.124451,391.183289 704.204590,391.826263 705.808655,393.078918 
	C706.842224,393.886017 707.176758,395.588196 707.824585,396.889160 
	C706.516235,397.181274 704.999939,398.036499 703.943604,397.646301 
	C701.851135,396.873352 700.012634,395.412659 698.133240,393.848694 
z"/>
<path fill="#F4FBF7" opacity="1.000000" stroke="none" 
	d="
M600.556335,357.925507 
	C601.707397,356.668488 602.988953,354.964264 603.741272,355.172424 
	C606.127075,355.832672 608.315369,357.206726 610.580017,358.304810 
	C609.726990,359.243774 608.683899,361.093994 608.054138,360.962616 
	C605.449524,360.419342 602.970032,359.276276 600.556335,357.925507 
z"/>
<path fill="#F4FBF7" opacity="1.000000" stroke="none" 
	d="
M418.041809,354.847107 
	C417.154144,353.820557 416.029907,352.933929 416.136444,352.234863 
	C416.547424,349.537323 416.985718,346.700104 418.254913,344.373810 
	C418.590973,343.757874 423.164215,344.180450 423.653931,345.176880 
	C424.805420,347.519836 425.491119,350.719666 424.832458,353.158844 
	C424.077454,355.954926 421.243988,356.783508 418.041809,354.847107 
z"/>
<path fill="#F4FBF7" opacity="1.000000" stroke="none" 
	d="
M784.601135,451.005615 
	C787.454407,447.621063 790.457214,446.355499 793.681641,449.527771 
	C795.903564,451.713806 794.999512,456.353638 791.799011,458.000854 
	C790.045288,458.903412 786.371216,459.279419 785.675537,458.335693 
	C784.404541,456.611511 784.702820,453.730652 784.601135,451.005615 
z"/>
<path fill="#F4FBF7" opacity="1.000000" stroke="none" 
	d="
M649.843384,381.128113 
	C649.433228,379.983246 649.060120,379.201569 649.039185,378.410553 
	C648.944885,374.850769 650.568726,372.096588 654.039612,371.482239 
	C655.504822,371.222870 658.642578,372.816254 658.719177,373.755157 
	C658.935364,376.406403 658.705322,379.675964 657.266174,381.732697 
	C655.473083,384.295197 652.388123,384.070587 649.843384,381.128113 
z"/>
</svg>