<svg version="1.1" id="Layer_1" xmlns="http://www.w3.org/2000/svg" xmlns:xlink="http://www.w3.org/1999/xlink" x="0px" y="0px"
	 width="100%" viewBox="0 0 1000 600" enable-background="new 0 0 1000 600" xml:space="preserve">
<path fill="#000000" opacity="1.000000" stroke="none" 
	d="
M1.000000,201.000000 
	C1.000000,134.353714 1.000000,67.707420 1.000000,1.030565 
	C334.211090,1.030565 667.422180,1.030565 1001.000000,1.030565 
	C1001.000000,67.356964 1001.000000,133.714600 1000.536133,200.536118 
	C667.048157,201.000000 334.024078,201.000000 1.000000,201.000000 
z"/>
<path fill="#DD0000" opacity="1.000000" stroke="none" 
	d="
M1.000000,201.463882 
	C334.024078,201.000000 667.048157,201.000000 1000.536133,201.000000 
	C1001.000000,267.357422 1001.000000,333.714813 1000.538757,400.536133 
	C667.051697,401.000000 334.025848,401.000000 1.000000,401.000000 
	C1.000000,334.642578 1.000000,268.285187 1.000000,201.463882 
z"/>
<path fill="#FFCE00" opacity="1.000000" stroke="none" 
	d="
M1.000000,401.461243 
	C334.025848,401.000000 667.051697,401.000000 1000.538757,401.000000 
	C1001.000000,467.646545 1001.000000,534.293091 1001.000000,600.969849 
	C667.787476,600.969849 334.574890,600.969849 1.000000,600.969849 
	C1.000000,534.641296 1.000000,468.281891 1.000000,401.461243 
z"/>
</svg>