<svg version="1.1" id="Layer_1" xmlns="http://www.w3.org/2000/svg" xmlns:xlink="http://www.w3.org/1999/xlink" x="0px" y="0px"
	 width="100%" viewBox="0 0 310 163" enable-background="new 0 0 310 163" xml:space="preserve">
<path fill="#3E3D6F" opacity="1.000000" stroke="none" 
	d="
M1.000000,89.000000 
	C1.000000,59.727314 1.000000,30.454630 1.000000,1.000000 
	C42.020714,1.000000 83.041702,1.000000 124.537407,1.458313 
	C125.058403,5.278559 125.104675,8.640492 125.132797,12.340360 
	C125.143684,12.902030 125.172737,13.125766 125.136459,13.787256 
	C125.104248,18.164515 125.137367,22.104021 125.114784,26.499592 
	C125.095757,30.396778 125.132439,33.837898 125.118889,37.541283 
	C125.092209,38.158772 125.115746,38.514004 125.080643,39.336018 
	C125.070633,43.555481 125.119270,47.308163 125.113998,51.513649 
	C125.092354,55.373951 125.124603,58.781445 125.110062,62.473274 
	C125.090790,63.140514 125.118301,63.523415 125.084312,64.369583 
	C125.062927,68.591179 125.103050,72.349495 125.131012,76.362671 
	C125.143173,76.785873 125.167496,76.954224 125.144043,77.333832 
	C125.096275,77.545082 125.149139,77.975021 125.100037,78.425308 
	C125.083740,81.591530 125.116539,84.307457 125.121155,87.229507 
	C125.092979,87.435631 125.177681,87.842995 125.114197,88.037521 
	C125.050713,88.232040 125.002342,88.638420 124.542099,88.730469 
	C119.264641,88.831810 114.447433,88.843330 109.630219,88.850052 
	C73.420143,88.900566 37.210072,88.950142 1.000000,89.000000 
M19.056595,34.283497 
	C19.056595,36.033615 19.056595,37.783733 19.056595,38.901108 
	C21.102896,39.059280 22.466331,39.164669 23.599142,39.252228 
	C24.125446,37.794472 24.704100,36.191715 25.305958,34.524681 
	C23.479998,35.412609 21.975124,30.344101 19.056595,34.283497 
M85.501846,39.812740 
	C86.093727,38.073013 86.685608,36.333282 87.242043,34.697750 
	C84.785706,32.487663 82.254341,32.553936 79.922272,35.099754 
	C80.134132,38.238934 81.822632,39.614399 85.501846,39.812740 
M102.923004,56.794281 
	C104.864235,55.624557 106.805458,54.454834 108.804054,53.250546 
	C106.700111,51.773003 105.420700,50.874508 104.322624,50.103363 
	C103.166138,50.872677 101.816353,51.770573 100.602417,52.578098 
	C101.148674,54.073208 101.683464,55.536934 102.923004,56.794281 
M46.104271,52.879108 
	C44.807213,51.889187 43.510151,50.899269 42.389824,50.044231 
	C41.169334,50.871578 39.830414,51.779209 38.856159,52.439640 
	C39.190273,54.046455 39.491959,55.497337 40.120274,58.519047 
	C42.380966,56.358887 44.001167,54.810734 46.104271,52.879108 
M33.141319,60.467228 
	C32.907055,59.862019 32.672794,59.256805 32.429878,58.629238 
	C29.597353,60.259560 27.861729,62.181637 29.915127,65.678726 
	C31.303377,65.678726 32.883709,65.678726 34.070801,65.678726 
	C34.513226,64.324364 35.014679,63.214046 35.164505,62.058155 
	C35.206573,61.733620 34.214996,61.275105 33.141319,60.467228 
M94.936493,59.824425 
	C93.334579,60.326744 91.732658,60.829063 90.582924,61.189590 
	C91.089920,62.944668 91.475128,64.278152 91.820595,65.474052 
	C96.567146,67.735481 96.317841,63.579327 97.438454,61.203892 
	C96.675560,60.959148 95.908508,60.713070 94.936493,59.824425 
M85.260895,69.312210 
	C84.658783,68.625496 84.056671,67.938789 83.769051,67.610756 
	C82.361649,68.683403 81.187317,69.578423 79.925606,70.540031 
	C80.421021,71.823738 80.927963,73.137306 81.308067,74.122238 
	C82.792046,74.122238 84.160141,74.122238 85.903587,74.122238 
	C85.903587,73.005325 85.903587,71.274635 85.260895,69.312210 
M18.897757,69.595818 
	C18.897757,71.302872 18.897757,73.009933 18.897757,74.177452 
	C20.980484,74.177452 22.374096,74.177452 23.632553,74.177452 
	C24.068634,72.921867 24.574183,71.466278 25.066031,70.050133 
	C23.314651,70.150208 21.900486,65.761154 18.897757,69.595818 
M39.772541,21.927794 
	C43.247135,22.257891 45.444607,20.826759 45.847229,17.628798 
	C44.623043,16.693989 43.384228,15.748003 42.382179,14.982820 
	C41.206406,15.819649 39.899181,16.750034 39.214180,17.237568 
	C39.214180,18.931210 39.214180,20.248405 39.772541,21.927794 
M13.782009,11.752625 
	C14.201581,10.644195 14.621152,9.535765 14.932738,8.712609 
	C13.687545,7.824380 12.409029,6.912382 11.372797,6.173211 
	C10.165852,6.989702 8.884372,7.856616 7.566287,8.748291 
	C8.090603,9.980842 8.700102,11.413638 9.338092,12.913412 
	C10.933929,12.778636 12.370381,12.657322 13.782009,11.752625 
M74.335022,12.839274 
	C75.343025,11.404456 76.351021,9.969637 77.147560,8.835824 
	C75.696564,7.788017 74.493530,6.919267 73.403900,6.132413 
	C72.325912,6.876682 70.931023,7.839750 68.825241,9.293634 
	C70.422012,10.531210 71.980507,11.739120 74.335022,12.839274 
M101.119797,34.329323 
	C100.654137,38.376446 103.627258,38.807999 106.473869,39.326191 
	C106.954056,37.809826 107.462738,36.203472 107.969971,34.601704 
	C106.062752,34.279274 104.112823,31.330473 101.119797,34.329323 
M44.791687,36.937656 
	C45.250603,36.273224 45.709518,35.608791 46.150738,34.969982 
	C44.867085,34.182766 43.618130,33.416828 42.294415,32.605042 
	C41.321178,33.225132 39.953484,34.096546 38.655224,34.923721 
	C39.113621,35.895878 39.505520,36.931389 40.065384,37.866314 
	C40.899654,39.259483 43.916046,39.096310 44.791687,36.937656 
M8.039174,80.524857 
	C9.880164,81.534332 11.721154,82.543816 13.371161,83.448578 
	C14.043358,81.399673 14.520509,79.945282 14.907652,78.765244 
	C13.764684,78.004997 12.458694,77.136307 10.964490,76.142433 
	C10.109134,77.175034 8.995820,78.519035 8.039174,80.524857 
M50.966076,83.209457 
	C53.898006,82.873177 56.075954,81.719337 56.195114,78.782860 
	C54.775555,77.784897 53.540031,76.916321 52.690540,76.319122 
	C51.324238,77.228516 50.055191,78.073174 48.815479,78.898308 
	C49.317001,80.388580 49.818634,81.879181 50.966076,83.209457 
M70.039169,80.524841 
	C71.880165,81.534325 73.721153,82.543800 75.371162,83.448563 
	C76.043205,81.400108 76.520439,79.945457 76.907639,78.765251 
	C75.764977,78.005211 74.458626,77.136292 72.964447,76.142441 
	C72.109108,77.175026 70.995804,78.519028 70.039169,80.524841 
M116.680191,82.812828 
	C117.249931,81.374100 117.819672,79.935371 118.297417,78.728943 
	C116.981110,77.846886 115.635361,76.945091 114.792778,76.380470 
	C113.297211,77.348518 112.023041,78.173256 110.818748,78.952766 
	C111.389229,80.491806 111.922249,81.929794 112.325111,83.016663 
	C113.627357,82.958656 114.807068,82.906113 116.680191,82.812828 
M107.472069,18.228670 
	C107.607651,18.135399 107.765823,18.062300 107.872314,17.943045 
	C107.974068,17.829102 108.099693,17.554131 108.082581,17.542368 
	C106.799698,16.660702 105.503677,15.798156 104.315292,15.005227 
	C103.368248,15.716197 102.033134,16.718496 100.920860,17.553503 
	C101.154045,18.795813 101.425934,20.244316 101.683990,21.619114 
	C103.273315,21.619114 105.047630,21.619114 106.551811,21.619114 
	C106.747528,20.453800 106.897545,19.560566 107.472069,18.228670 
M62.227421,68.053543 
	C59.373837,69.544373 60.034824,71.757301 61.226646,75.045128 
	C63.375378,73.329865 65.169434,71.897713 66.942917,70.481995 
	C65.136787,69.233871 63.909023,68.385422 62.227421,68.053543 
M41.190411,68.806694 
	C40.378956,69.233856 39.567501,69.661026 37.868275,70.555534 
	C40.256702,72.184448 42.244453,73.540100 44.451572,75.045364 
	C45.295452,70.272324 44.412045,68.423798 41.190411,68.806694 
M104.627029,67.270515 
	C103.331223,68.316605 102.035423,69.362686 100.138107,70.894363 
	C102.306206,72.318062 104.265007,73.604332 106.331352,74.961220 
	C106.868233,73.100082 107.292870,71.628029 107.688446,70.256721 
	C106.786278,69.484184 105.873604,68.702652 104.627029,67.270515 
M83.988716,49.952820 
	C82.672104,50.849373 81.355492,51.745922 80.007889,52.663578 
	C83.650490,58.010956 83.955551,58.013405 87.370171,52.553669 
	C86.345291,51.875580 85.336838,51.208359 83.988716,49.952820 
M19.162443,56.255379 
	C20.633659,56.418468 22.104877,56.581554 23.429077,56.728344 
	C24.129736,55.179707 24.753284,53.801506 25.275877,52.646446 
	C24.019581,51.758392 22.650684,50.790745 21.658041,50.089062 
	C20.467016,50.908340 19.245825,51.748363 18.085886,52.546257 
	C18.393612,53.336739 18.825928,54.447258 19.162443,56.255379 
M56.146065,9.187163 
	C56.260937,9.070038 56.404427,8.968627 56.480450,8.830170 
	C56.529793,8.740298 56.525501,8.521228 56.469208,8.487693 
	C55.071785,7.655284 53.664204,6.839927 52.611221,6.226923 
	C51.355549,7.073553 50.066090,7.942961 49.145493,8.563668 
	C49.697254,10.085161 50.197639,11.464980 51.179520,14.172535 
	C52.960316,12.426127 54.314930,11.097675 56.146065,9.187163 
M113.681717,7.480688 
	C112.673027,7.834193 111.664337,8.187697 111.021111,8.413123 
	C111.633911,9.987470 112.176056,11.380280 112.754997,12.867643 
	C114.052345,12.790582 115.469681,12.706394 116.551140,12.642157 
	C117.236847,11.064404 117.832077,9.694846 118.389648,8.411927 
	C117.476227,8.022983 116.625862,7.619349 115.744843,7.300376 
	C115.159874,7.088588 114.531067,6.997888 113.681717,7.480688 
M113.838303,47.551510 
	C117.325462,48.376438 117.305946,45.215427 118.392387,43.738091 
	C116.981476,42.782410 115.635063,41.870422 114.701607,41.238148 
	C113.346413,42.176311 112.086197,43.048717 110.540672,44.118645 
	C111.426643,45.398666 112.308426,46.672630 113.838303,47.551510 
M70.969757,47.496635 
	C72.533699,47.589684 74.097641,47.682732 75.573135,47.770519 
	C76.092278,46.388004 76.647423,44.909595 77.084106,43.746693 
	C75.839928,42.929871 74.507698,42.055237 73.295265,41.259258 
	C72.203934,41.969860 70.824913,42.867779 69.455864,43.759205 
	C69.894241,44.707722 70.370636,45.738514 70.969757,47.496635 
M53.664192,42.231800 
	C51.090950,39.662048 50.898132,44.847401 48.545567,43.116066 
	C49.351463,45.202633 49.920506,46.675949 50.879936,49.160023 
	C53.142475,47.306435 55.089394,45.711414 57.621296,43.637150 
	C55.670647,43.142479 54.891300,42.944843 53.664192,42.231800 
M9.888999,42.743065 
	C9.048136,42.999832 8.207273,43.256599 7.373468,43.511215 
	C8.035174,45.041904 8.612600,46.377628 9.130651,47.576008 
	C10.664433,47.645550 12.132665,47.712124 13.564876,47.777061 
	C14.036359,46.511547 14.595235,45.011467 15.033685,43.834618 
	C14.003694,42.956081 12.951918,41.967442 11.774867,41.161819 
	C11.613605,41.051441 10.828755,41.852150 9.888999,42.743065 
M8.159338,61.034027 
	C8.480126,62.592522 8.800916,64.151016 9.025800,65.243576 
	C10.826846,65.243576 12.276956,65.243576 14.446069,65.243576 
	C13.713150,62.896217 12.991274,60.584232 12.219969,58.113934 
	C10.701347,59.385517 9.757070,60.176186 8.159338,61.034027 
M32.978077,24.753675 
	C31.665539,25.130318 29.917097,25.135048 29.178185,26.001104 
	C28.585510,26.695757 28.734409,28.971848 29.417709,29.587006 
	C30.477623,30.541218 32.272102,30.679491 33.314804,31.019917 
	C34.246159,28.908148 34.845173,27.549934 35.448933,26.180965 
	C34.733212,25.920681 33.992371,25.651258 32.978077,24.753675 
M81.315918,21.398397 
	C82.811859,21.398397 84.307800,21.398397 85.623726,21.398397 
	C86.155869,20.037521 86.668518,18.726492 87.122894,17.564499 
	C85.992897,16.743181 84.614517,15.741337 83.756119,15.117423 
	C82.381325,16.056759 81.195747,16.866814 80.333252,17.456114 
	C80.623322,18.545921 80.921082,19.664640 81.315918,21.398397 
M91.207443,27.336134 
	C91.780884,28.523199 92.354324,29.710262 92.927757,30.897331 
	C94.654747,29.623066 96.381737,28.348801 98.108910,27.074402 
	C96.242363,25.591642 94.973732,24.583857 93.705101,23.576073 
	C94.596222,24.487597 95.487350,25.399120 96.378479,26.310644 
	C94.472794,26.510201 92.567108,26.709757 91.207443,27.336134 
M22.424856,21.137426 
	C23.487350,19.926012 24.549845,18.714596 25.374918,17.773878 
	C23.912249,16.653852 22.605326,15.653090 21.660492,14.929591 
	C20.415392,15.890839 19.178282,16.845917 17.954454,17.804293 
	C20.221535,17.700624 17.962643,22.903912 22.424856,21.137426 
M66.070549,35.947243 
	C65.001442,33.070881 63.652489,32.803856 59.452038,34.603935 
	C59.947445,36.081615 60.437725,37.544014 61.230145,39.907612 
	C62.789219,38.608887 64.126373,37.495026 66.070549,35.947243 
M94.911652,12.374971 
	C95.893929,11.071741 96.876205,9.768511 98.496269,7.619100 
	C95.222298,7.459857 92.755096,7.339854 89.941086,7.202983 
	C90.882393,10.044452 91.355568,11.472804 91.819839,12.874285 
	C92.727371,12.581106 93.479584,12.338105 94.911652,12.374971 
M33.623161,7.976765 
	C31.954439,7.635264 30.285715,7.293763 27.936098,6.812918 
	C28.825972,9.808758 29.261427,11.274754 29.696323,12.738872 
	C30.660645,12.610522 32.221939,12.849417 32.686768,12.245029 
	C33.571590,11.094552 33.829983,9.462297 33.623161,7.976765 
M72.689377,59.372410 
	C70.217407,60.911030 69.940384,63.037121 70.915726,65.249435 
	C72.628418,65.249435 74.200325,65.249435 77.527679,65.249435 
	C75.654816,62.550995 74.350632,60.671909 72.689377,59.372410 
M76.365768,27.099670 
	C76.488289,26.986799 76.637321,26.890970 76.724464,26.755365 
	C76.787773,26.656858 76.828499,26.427397 76.778496,26.389572 
	C75.610817,25.506258 74.429367,24.641142 73.221008,23.750975 
	C71.038528,25.272282 69.158913,27.248302 71.378532,31.065685 
	C72.895683,29.912926 74.385147,28.781212 76.365768,27.099670 
M14.540063,25.964897 
	C13.447112,25.237638 12.354162,24.510382 11.217444,23.754000 
	C9.108939,25.277754 7.153444,27.226181 9.536748,31.352234 
	C11.432698,29.678301 13.177506,28.137812 14.540063,25.964897 
M30.460819,78.095268 
	C29.809605,78.179779 29.158390,78.264290 28.508560,78.348618 
	C28.938475,79.817093 29.363871,81.270126 30.077139,83.706451 
	C32.188210,82.170120 34.209335,80.699249 37.315536,78.438713 
	C34.143009,78.002708 32.543667,77.782906 30.460819,78.095268 
M59.162773,17.511740 
	C59.873009,18.928583 60.583241,20.345428 61.909534,22.991255 
	C63.556129,21.137726 65.173332,19.809017 65.979736,18.098143 
	C66.209923,17.609770 64.087791,16.012655 63.083057,14.964365 
	C61.888817,15.720954 60.821259,16.397287 59.162773,17.511740 
M96.536568,80.140511 
	C96.813507,79.549850 97.090446,78.959190 97.367378,78.368530 
	C95.101677,78.015221 92.835983,77.661911 90.101814,77.235550 
	C90.941673,79.864487 91.410889,81.333221 92.123726,83.564529 
	C93.422005,82.656944 94.789871,81.700706 96.536568,80.140511 
M59.837460,52.025017 
	C60.059273,53.558208 60.281086,55.091396 60.663395,57.733929 
	C63.096767,56.044579 65.171661,54.604095 67.246559,53.163612 
	C64.580986,52.776543 62.870647,47.998478 59.837460,52.025017 
M52.963226,23.711344 
	C51.689938,24.690819 50.416649,25.670292 48.605602,27.063437 
	C50.600342,28.609524 52.308060,29.933144 54.240047,31.430592 
	C54.982693,29.238176 55.464489,27.815844 55.961815,26.347651 
	C55.258667,25.797178 54.294773,25.042574 52.963226,23.711344 
M112.411629,28.602861 
	C113.711540,29.465235 115.011452,30.327606 116.303986,31.185089 
	C117.041710,29.095150 117.533600,27.701658 117.999229,26.382566 
	C116.814919,25.487005 115.537674,24.521164 113.876671,23.265131 
	C113.292007,24.862915 112.743355,26.362309 112.411629,28.602861 
M115.327621,59.402657 
	C113.892899,60.099991 112.458183,60.797325 111.508057,61.259125 
	C111.478188,65.371460 114.108490,65.410728 116.615601,65.364525 
	C117.152382,63.945381 117.667343,62.583916 118.097267,61.447277 
	C117.270454,60.951817 116.476692,60.476166 115.327621,59.402657 
M53.680836,59.996433 
	C53.185665,59.594761 52.368671,58.761559 52.242970,58.855301 
	C49.855213,60.636040 49.424370,62.950161 50.463947,65.212761 
	C51.992805,65.212761 53.331699,65.212761 54.655212,65.212761 
	C55.103104,64.072678 55.646004,62.690762 56.204487,61.269176 
	C55.565929,61.070335 54.795723,60.830502 53.680836,59.996433 
M33.055504,42.564205 
	C31.462191,42.746334 29.868877,42.928463 28.514805,43.083244 
	C29.037785,44.806553 29.488073,46.290337 30.202316,48.643898 
	C32.217438,47.089966 34.161404,45.590904 36.924992,43.459805 
	C34.890598,43.210297 34.236858,43.130119 33.055504,42.564205 
M96.023132,47.099766 
	C96.523956,45.855938 97.024780,44.612110 97.869553,42.514046 
	C95.160797,42.514046 92.790855,42.514046 90.440071,42.514046 
	C91.095123,44.969906 91.454887,46.318695 91.825584,47.708488 
	C92.922462,47.708488 94.295807,47.708488 96.023132,47.099766 
z"/>
<path fill="#FCF7F8" opacity="1.000000" stroke="none" 
	d="
M311.000000,139.000000 
	C311.000000,143.024918 311.000000,147.049850 310.752960,151.417908 
	C310.329010,151.807541 310.152069,151.854034 309.520386,151.782593 
	C207.706223,151.649460 106.346764,151.633438 4.987311,151.630707 
	C3.999007,151.630676 3.010699,151.806702 1.757544,151.830292 
	C1.328463,151.840042 1.164232,151.920029 1.000000,152.000000 
	C1.000000,147.975082 1.000000,143.950150 1.467460,139.441742 
	C104.956612,138.972153 207.978302,138.986084 311.000000,139.000000 
z"/>
<path fill="#FFFFFF" opacity="1.000000" stroke="none" 
	d="
M311.000000,114.000000 
	C311.000000,117.692909 311.000000,121.385818 310.537476,125.622963 
	C208.043472,126.179878 106.011971,126.193123 3.980469,126.196701 
	C2.986982,126.196732 1.993490,126.068405 1.000000,126.000000 
	C1.000000,122.307091 1.000000,118.614182 1.467136,114.432419 
	C21.407001,113.940659 40.879730,113.931465 60.352459,113.935936 
	C143.901642,113.955101 227.450821,113.978287 311.000000,114.000000 
z"/>
<path fill="#FFFFFF" opacity="1.000000" stroke="none" 
	d="
M1.000000,89.460640 
	C37.210072,88.950142 73.420143,88.900566 109.630219,88.850052 
	C114.447433,88.843330 119.264641,88.831810 125.002686,88.819199 
	C168.162125,88.827690 210.400742,88.826057 252.639328,88.857300 
	C272.092926,88.871689 291.546448,88.950432 311.000000,89.000000 
	C311.000000,92.692909 311.000000,96.385818 310.534851,100.602142 
	C208.042175,101.134277 106.014694,101.143440 3.987204,101.145447 
	C2.991471,101.145462 1.995735,101.050583 1.000000,101.000000 
	C1.000000,97.307091 1.000000,93.614182 1.000000,89.460640 
z"/>
<path fill="#B22234" opacity="1.000000" stroke="none" 
	d="
M2.022393,151.900543 
	C3.010699,151.806702 3.999007,151.630676 4.987311,151.630707 
	C106.346764,151.633438 207.706223,151.649460 309.627930,152.019409 
	C310.460114,152.582764 310.730042,152.791382 311.000000,153.000000 
	C311.000000,156.661514 311.000000,160.323029 311.000000,163.980225 
	C207.666656,163.975891 104.333328,163.975891 1.000000,163.975891 
	C1.000000,160.623169 1.000000,157.294540 1.230171,153.362518 
	C1.647692,152.472946 1.835043,152.186737 2.022393,151.900543 
z"/>
<path fill="#B22335" opacity="1.000000" stroke="none" 
	d="
M311.000000,138.542023 
	C207.978302,138.986084 104.956612,138.972153 1.467460,138.979126 
	C1.000000,135.638657 1.000000,132.277298 1.466933,128.412048 
	C104.125351,127.898567 206.316849,127.888672 308.508331,127.884361 
	C309.338898,127.884331 310.169434,127.959793 311.000000,128.000000 
	C311.000000,131.361343 311.000000,134.722702 311.000000,138.542023 
z"/>
<path fill="#B32436" opacity="1.000000" stroke="none" 
	d="
M311.000000,113.542023 
	C227.450821,113.978287 143.901642,113.955101 60.352459,113.935936 
	C40.879730,113.931465 21.407001,113.940659 1.467136,113.971786 
	C1.000000,110.638657 1.000000,107.277306 1.467931,103.428177 
	C57.690910,102.933624 113.445953,102.914368 169.201004,102.923904 
	C216.467331,102.931992 263.733673,102.973358 311.000000,103.000000 
	C311.000000,106.361343 311.000000,109.722694 311.000000,113.542023 
z"/>
<path fill="#FCF7F8" opacity="1.000000" stroke="none" 
	d="
M125.170494,26.043526 
	C125.137367,22.104021 125.104248,18.164515 125.446045,13.775998 
	C126.224571,13.251192 126.628181,13.175397 127.486084,13.217501 
	C187.632111,13.350566 247.323853,13.367089 307.015594,13.369155 
	C308.002930,13.369189 308.990234,13.193241 310.242432,13.169657 
	C310.671509,13.159932 310.835754,13.079967 311.000000,13.000000 
	C311.000000,17.024544 311.000000,21.049089 310.531738,25.557728 
	C248.432465,26.042389 186.801483,26.042957 125.170494,26.043526 
z"/>
<path fill="#B52D3E" opacity="1.000000" stroke="none" 
	d="
M311.000000,88.750000 
	C291.546448,88.950432 272.092926,88.871689 252.639328,88.857300 
	C210.400742,88.826057 168.162125,88.827690 125.462936,88.727158 
	C125.002342,88.638420 125.050713,88.232040 125.253304,87.973557 
	C125.622604,87.400917 125.520416,87.170357 125.149338,87.023384 
	C125.116539,84.307457 125.083740,81.591530 125.237038,78.347214 
	C125.423141,77.818825 125.527573,77.417252 125.527573,77.417252 
	C125.527573,77.417252 125.191818,77.122574 125.191818,77.122574 
	C125.167496,76.954224 125.143173,76.785873 125.586273,76.379044 
	C185.393356,76.143272 244.733032,76.143471 304.072693,76.159660 
	C306.058624,76.160210 308.044495,76.322456 310.067078,76.657776 
	C310.402496,77.270813 310.701233,77.635406 311.000000,78.000000 
	C311.000000,80.700012 311.000000,83.400032 310.828064,86.633499 
	C310.770752,87.444641 310.885376,87.722321 311.000000,88.000000 
	C311.000000,88.000000 311.000000,88.500000 311.000000,88.750000 
z"/>
<path fill="#FFFFFF" opacity="1.000000" stroke="none" 
	d="
M310.030396,76.409332 
	C308.044495,76.322456 306.058624,76.160210 304.072693,76.159660 
	C244.733032,76.143471 185.393356,76.143272 125.598434,76.124191 
	C125.103050,72.349495 125.062927,68.591179 125.539368,64.346832 
	C170.044693,63.856483 214.033447,63.837502 258.022217,63.855019 
	C275.681488,63.862049 293.340729,63.949276 311.000000,64.000000 
	C311.000000,67.692909 311.000000,71.385818 310.756409,75.638847 
	C310.352020,76.269081 310.191223,76.339203 310.030396,76.409332 
z"/>
<path fill="#FFFFFF" opacity="1.000000" stroke="none" 
	d="
M125.167908,51.060841 
	C125.119270,47.308163 125.070633,43.555481 125.535789,39.307163 
	C186.371826,38.805733 246.694061,38.798622 307.016296,38.802765 
	C308.344208,38.802856 309.672089,38.931385 311.000000,39.000000 
	C311.000000,42.692909 311.000000,46.385818 310.532043,50.567642 
	C248.432053,51.057987 186.799973,51.059414 125.167908,51.060841 
z"/>
<path fill="#B22234" opacity="1.000000" stroke="none" 
	d="
M309.977570,13.099416 
	C308.990234,13.193241 308.002930,13.369189 307.015594,13.369155 
	C247.323853,13.367089 187.632111,13.350566 127.341522,12.963927 
	C126.212105,12.395778 125.681526,12.199100 125.150955,12.002424 
	C125.104675,8.640492 125.058403,5.278559 125.006065,1.458313 
	C187.000000,1.000000 249.000015,1.000000 311.000000,1.000000 
	C311.000000,4.383226 311.000000,7.708657 310.769836,11.637471 
	C310.352295,12.527042 310.164917,12.813231 309.977570,13.099416 
z"/>
<path fill="#B32436" opacity="1.000000" stroke="none" 
	d="
M125.113998,51.513649 
	C186.799973,51.059414 248.432053,51.057987 310.532043,51.028282 
	C311.000000,54.361286 311.000000,57.722576 310.532043,61.571743 
	C299.069458,62.066391 288.074768,62.072266 277.080109,62.080082 
	C226.439026,62.116074 175.797943,62.152603 125.156853,62.188942 
	C125.124603,58.781445 125.092354,55.373951 125.113998,51.513649 
z"/>
<path fill="#B22335" opacity="1.000000" stroke="none" 
	d="
M125.114784,26.499592 
	C186.801483,26.042957 248.432465,26.042389 310.531738,26.020910 
	C311.000000,29.361288 311.000000,32.722576 310.533081,36.587852 
	C264.089874,37.102318 218.113617,37.100769 172.137390,37.129936 
	C156.481277,37.139870 140.825211,37.227108 125.169113,37.279018 
	C125.132439,33.837898 125.095757,30.396778 125.114784,26.499592 
z"/>
<path fill="#BD4554" opacity="1.000000" stroke="none" 
	d="
M311.000000,102.666672 
	C263.733673,102.973358 216.467331,102.931992 169.201004,102.923904 
	C113.445953,102.914368 57.690910,102.933624 1.467931,102.970200 
	C1.000000,102.555557 1.000000,102.111107 1.000000,101.333328 
	C1.995735,101.050583 2.991471,101.145462 3.987204,101.145447 
	C106.014694,101.143440 208.042175,101.134277 310.534851,101.062775 
	C311.000000,101.444443 311.000000,101.888893 311.000000,102.666672 
z"/>
<path fill="#C04D5C" opacity="1.000000" stroke="none" 
	d="
M311.000000,127.666672 
	C310.169434,127.959793 309.338898,127.884331 308.508331,127.884361 
	C206.316849,127.888672 104.125351,127.898567 1.466933,127.954079 
	C1.000000,127.555557 1.000000,127.111107 1.000000,126.333328 
	C1.993490,126.068405 2.986982,126.196732 3.980469,126.196701 
	C106.011971,126.193123 208.043472,126.179878 310.537476,126.083603 
	C311.000000,126.444443 311.000000,126.888893 311.000000,127.666672 
z"/>
<path fill="#BD4554" opacity="1.000000" stroke="none" 
	d="
M125.110062,62.473274 
	C175.797943,62.152603 226.439026,62.116074 277.080109,62.080082 
	C288.074768,62.072266 299.069458,62.066391 310.532043,62.029812 
	C311.000000,62.444447 311.000000,62.888889 311.000000,63.666668 
	C293.340729,63.949276 275.681488,63.862049 258.022217,63.855019 
	C214.033447,63.837502 170.044693,63.856483 125.600876,63.883568 
	C125.118301,63.523415 125.090790,63.140514 125.110062,62.473274 
z"/>
<path fill="#C04D5C" opacity="1.000000" stroke="none" 
	d="
M125.118889,37.541283 
	C140.825211,37.227108 156.481277,37.139870 172.137390,37.129936 
	C218.113617,37.100769 264.089874,37.102318 310.533081,37.045921 
	C311.000000,37.444447 311.000000,37.888889 311.000000,38.666668 
	C309.672089,38.931385 308.344208,38.802856 307.016296,38.802765 
	C246.694061,38.798622 186.371826,38.805733 125.594437,38.840378 
	C125.115746,38.514004 125.092209,38.158772 125.118889,37.541283 
z"/>
<path fill="#B01A2D" opacity="1.000000" stroke="none" 
	d="
M310.067078,76.657776 
	C310.191223,76.339203 310.352020,76.269081 310.756409,76.099487 
	C311.000000,76.444443 311.000000,76.888893 311.000000,77.666672 
	C310.701233,77.635406 310.402496,77.270813 310.067078,76.657776 
z"/>
<path fill="#B01A2D" opacity="1.000000" stroke="none" 
	d="
M311.000000,87.750000 
	C310.885376,87.722321 310.770752,87.444641 310.828064,87.083481 
	C311.000000,87.000000 311.000000,87.500000 311.000000,87.750000 
z"/>
<path fill="#AF0C26" opacity="1.000000" stroke="none" 
	d="
M310.242432,13.169659 
	C310.164917,12.813231 310.352295,12.527042 310.769836,12.120427 
	C311.000000,12.000000 311.000000,12.500000 311.000000,12.750000 
	C310.835754,13.079967 310.671509,13.159932 310.242432,13.169659 
z"/>
<path fill="#AF0C26" opacity="1.000000" stroke="none" 
	d="
M1.757545,151.830307 
	C1.835043,152.186737 1.647692,152.472946 1.230171,152.879578 
	C1.000000,153.000000 1.000000,152.500000 1.000000,152.250000 
	C1.164232,151.920029 1.328463,151.840042 1.757545,151.830307 
z"/>
<path fill="#AF0C26" opacity="1.000000" stroke="none" 
	d="
M311.000000,152.750000 
	C310.730042,152.791382 310.460114,152.582764 310.082642,152.137344 
	C310.152069,151.854034 310.329010,151.807541 310.752960,151.880524 
	C311.000000,152.000000 311.000000,152.500000 311.000000,152.750000 
z"/>
<path fill="#DCDCE3" opacity="1.000000" stroke="none" 
	d="
M19.397667,34.234653 
	C21.975124,30.344101 23.479998,35.412609 25.305958,34.524681 
	C24.704100,36.191715 24.125446,37.794472 23.599142,39.252228 
	C22.466331,39.164669 21.102896,39.059280 19.056595,38.901108 
	C19.056595,37.783733 19.056595,36.033615 19.397667,34.234653 
z"/>
<path fill="#DCDCE3" opacity="1.000000" stroke="none" 
	d="
M85.201447,39.569771 
	C81.822632,39.614399 80.134132,38.238934 79.922272,35.099754 
	C82.254341,32.553936 84.785706,32.487663 87.242043,34.697750 
	C86.685608,36.333282 86.093727,38.073013 85.201447,39.569771 
z"/>
<path fill="#E5E5EB" opacity="1.000000" stroke="none" 
	d="
M102.570625,56.897472 
	C101.683464,55.536934 101.148674,54.073208 100.602417,52.578098 
	C101.816353,51.770573 103.166138,50.872677 104.322624,50.103363 
	C105.420700,50.874508 106.700111,51.773003 108.804054,53.250546 
	C106.805458,54.454834 104.864235,55.624557 102.570625,56.897472 
z"/>
<path fill="#E5E5EB" opacity="1.000000" stroke="none" 
	d="
M45.862820,53.070847 
	C44.001167,54.810734 42.380966,56.358887 40.120274,58.519047 
	C39.491959,55.497337 39.190273,54.046455 38.856159,52.439640 
	C39.830414,51.779209 41.169334,50.871578 42.389824,50.044231 
	C43.510151,50.899269 44.807213,51.889187 45.862820,53.070847 
z"/>
<path fill="#E8E8ED" opacity="1.000000" stroke="none" 
	d="
M33.419434,60.672638 
	C34.214996,61.275105 35.206573,61.733620 35.164505,62.058155 
	C35.014679,63.214046 34.513226,64.324364 34.070801,65.678726 
	C32.883709,65.678726 31.303377,65.678726 29.915127,65.678726 
	C27.861729,62.181637 29.597353,60.259560 32.429878,58.629238 
	C32.672794,59.256805 32.907055,59.862019 33.419434,60.672638 
z"/>
<path fill="#E8E8ED" opacity="1.000000" stroke="none" 
	d="
M95.038971,60.145710 
	C95.908508,60.713070 96.675560,60.959148 97.438454,61.203892 
	C96.317841,63.579327 96.567146,67.735481 91.820595,65.474052 
	C91.475128,64.278152 91.089920,62.944668 90.582924,61.189590 
	C91.732658,60.829063 93.334579,60.326744 95.038971,60.145710 
z"/>
<path fill="#EDEDF1" opacity="1.000000" stroke="none" 
	d="
M85.582245,69.428070 
	C85.903587,71.274635 85.903587,73.005325 85.903587,74.122238 
	C84.160141,74.122238 82.792046,74.122238 81.308067,74.122238 
	C80.927963,73.137306 80.421021,71.823738 79.925606,70.540031 
	C81.187317,69.578423 82.361649,68.683403 83.769051,67.610756 
	C84.056671,67.938789 84.658783,68.625496 85.582245,69.428070 
z"/>
<path fill="#EDEDF1" opacity="1.000000" stroke="none" 
	d="
M19.264118,69.531731 
	C21.900486,65.761154 23.314651,70.150208 25.066031,70.050133 
	C24.574183,71.466278 24.068634,72.921867 23.632553,74.177452 
	C22.374096,74.177452 20.980484,74.177452 18.897757,74.177452 
	C18.897757,73.009933 18.897757,71.302872 19.264118,69.531731 
z"/>
<path fill="#E8E8ED" opacity="1.000000" stroke="none" 
	d="
M39.493362,21.746696 
	C39.214180,20.248405 39.214180,18.931210 39.214180,17.237568 
	C39.899181,16.750034 41.206406,15.819649 42.382179,14.982820 
	C43.384228,15.748003 44.623043,16.693989 45.847229,17.628798 
	C45.444607,20.826759 43.247135,22.257891 39.493362,21.746696 
z"/>
<path fill="#E5E5EB" opacity="1.000000" stroke="none" 
	d="
M13.794422,12.144316 
	C12.370381,12.657322 10.933929,12.778636 9.338092,12.913412 
	C8.700102,11.413638 8.090603,9.980842 7.566287,8.748291 
	C8.884372,7.856616 10.165852,6.989702 11.372797,6.173211 
	C12.409029,6.912382 13.687545,7.824380 14.932738,8.712609 
	C14.621152,9.535765 14.201581,10.644195 13.794422,12.144316 
z"/>
<path fill="#E5E5EB" opacity="1.000000" stroke="none" 
	d="
M73.937012,12.893153 
	C71.980507,11.739120 70.422012,10.531210 68.825241,9.293634 
	C70.931023,7.839750 72.325912,6.876682 73.403900,6.132413 
	C74.493530,6.919267 75.696564,7.788017 77.147560,8.835824 
	C76.351021,9.969637 75.343025,11.404456 73.937012,12.893153 
z"/>
<path fill="#DBDBE3" opacity="1.000000" stroke="none" 
	d="
M101.475311,34.310059 
	C104.112823,31.330473 106.062752,34.279274 107.969971,34.601704 
	C107.462738,36.203472 106.954056,37.809826 106.473869,39.326191 
	C103.627258,38.807999 100.654137,38.376446 101.475311,34.310059 
z"/>
<path fill="#DBDBE3" opacity="1.000000" stroke="none" 
	d="
M44.786705,37.301155 
	C43.916046,39.096310 40.899654,39.259483 40.065384,37.866314 
	C39.505520,36.931389 39.113621,35.895878 38.655224,34.923721 
	C39.953484,34.096546 41.321178,33.225132 42.294415,32.605042 
	C43.618130,33.416828 44.867085,34.182766 46.150738,34.969982 
	C45.709518,35.608791 45.250603,36.273224 44.786705,37.301155 
z"/>
<path fill="#DEDEE5" opacity="1.000000" stroke="none" 
	d="
M7.960840,80.193947 
	C8.995820,78.519035 10.109134,77.175034 10.964490,76.142433 
	C12.458694,77.136307 13.764684,78.004997 14.907652,78.765244 
	C14.520509,79.945282 14.043358,81.399673 13.371161,83.448578 
	C11.721154,82.543816 9.880164,81.534332 7.960840,80.193947 
z"/>
<path fill="#DCDCE4" opacity="1.000000" stroke="none" 
	d="
M50.643173,83.289627 
	C49.818634,81.879181 49.317001,80.388580 48.815479,78.898308 
	C50.055191,78.073174 51.324238,77.228516 52.690540,76.319122 
	C53.540031,76.916321 54.775555,77.784897 56.195114,78.782860 
	C56.075954,81.719337 53.898006,82.873177 50.643173,83.289627 
z"/>
<path fill="#DEDEE5" opacity="1.000000" stroke="none" 
	d="
M69.960838,80.193939 
	C70.995804,78.519028 72.109108,77.175026 72.964447,76.142441 
	C74.458626,77.136292 75.764977,78.005211 76.907639,78.765251 
	C76.520439,79.945457 76.043205,81.400108 75.371162,83.448563 
	C73.721153,82.543800 71.880165,81.534325 69.960838,80.193939 
z"/>
<path fill="#DCDCE4" opacity="1.000000" stroke="none" 
	d="
M116.333481,82.833199 
	C114.807068,82.906113 113.627357,82.958656 112.325111,83.016663 
	C111.922249,81.929794 111.389229,80.491806 110.818748,78.952766 
	C112.023041,78.173256 113.297211,77.348518 114.792778,76.380470 
	C115.635361,76.945091 116.981110,77.846886 118.297417,78.728943 
	C117.819672,79.935371 117.249931,81.374100 116.333481,82.833199 
z"/>
<path fill="#E8E8ED" opacity="1.000000" stroke="none" 
	d="
M107.259811,18.448000 
	C106.897545,19.560566 106.747528,20.453800 106.551811,21.619114 
	C105.047630,21.619114 103.273315,21.619114 101.683990,21.619114 
	C101.425934,20.244316 101.154045,18.795813 100.920860,17.553503 
	C102.033134,16.718496 103.368248,15.716197 104.315292,15.005227 
	C105.503677,15.798156 106.799698,16.660702 108.082581,17.542368 
	C108.099693,17.554131 107.974068,17.829102 107.872314,17.943045 
	C107.765823,18.062300 107.607651,18.135399 107.259811,18.448000 
z"/>
<path fill="#EAEAEE" opacity="1.000000" stroke="none" 
	d="
M62.454338,67.795258 
	C63.909023,68.385422 65.136787,69.233871 66.942917,70.481995 
	C65.169434,71.897713 63.375378,73.329865 61.226646,75.045128 
	C60.034824,71.757301 59.373837,69.544373 62.454338,67.795258 
z"/>
<path fill="#EBEBEF" opacity="1.000000" stroke="none" 
	d="
M41.401886,68.520782 
	C44.412045,68.423798 45.295452,70.272324 44.451572,75.045364 
	C42.244453,73.540100 40.256702,72.184448 37.868275,70.555534 
	C39.567501,69.661026 40.378956,69.233856 41.401886,68.520782 
z"/>
<path fill="#EBEBEF" opacity="1.000000" stroke="none" 
	d="
M104.793983,67.595818 
	C105.873604,68.702652 106.786278,69.484184 107.688446,70.256721 
	C107.292870,71.628029 106.868233,73.100082 106.331352,74.961220 
	C104.265007,73.604332 102.306206,72.318062 100.138107,70.894363 
	C102.035423,69.362686 103.331223,68.316605 104.793983,67.595818 
z"/>
<path fill="#E8E8ED" opacity="1.000000" stroke="none" 
	d="
M84.158554,50.246979 
	C85.336838,51.208359 86.345291,51.875580 87.370171,52.553669 
	C83.955551,58.013405 83.650490,58.010956 80.007889,52.663578 
	C81.355492,51.745922 82.672104,50.849373 84.158554,50.246979 
z"/>
<path fill="#E8E8ED" opacity="1.000000" stroke="none" 
	d="
M19.210342,55.906578 
	C18.825928,54.447258 18.393612,53.336739 18.085886,52.546257 
	C19.245825,51.748363 20.467016,50.908340 21.658041,50.089062 
	C22.650684,50.790745 24.019581,51.758392 25.275877,52.646446 
	C24.753284,53.801506 24.129736,55.179707 23.429077,56.728344 
	C22.104877,56.581554 20.633659,56.418468 19.210342,55.906578 
z"/>
<path fill="#E8E8ED" opacity="1.000000" stroke="none" 
	d="
M55.907803,9.478193 
	C54.314930,11.097675 52.960316,12.426127 51.179520,14.172535 
	C50.197639,11.464980 49.697254,10.085161 49.145493,8.563668 
	C50.066090,7.942961 51.355549,7.073553 52.611221,6.226923 
	C53.664204,6.839927 55.071785,7.655284 56.469208,8.487693 
	C56.525501,8.521228 56.529793,8.740298 56.480450,8.830170 
	C56.404427,8.968627 56.260937,9.070038 55.907803,9.478193 
z"/>
<path fill="#E8E8ED" opacity="1.000000" stroke="none" 
	d="
M113.801804,7.166836 
	C114.531067,6.997888 115.159874,7.088588 115.744843,7.300376 
	C116.625862,7.619349 117.476227,8.022983 118.389648,8.411927 
	C117.832077,9.694846 117.236847,11.064404 116.551140,12.642157 
	C115.469681,12.706394 114.052345,12.790582 112.754997,12.867643 
	C112.176056,11.380280 111.633911,9.987470 111.021111,8.413123 
	C111.664337,8.187697 112.673027,7.834193 113.801804,7.166836 
z"/>
<path fill="#E1E1E8" opacity="1.000000" stroke="none" 
	d="
M113.514259,47.749054 
	C112.308426,46.672630 111.426643,45.398666 110.540672,44.118645 
	C112.086197,43.048717 113.346413,42.176311 114.701607,41.238148 
	C115.635063,41.870422 116.981476,42.782410 118.392387,43.738091 
	C117.305946,45.215427 117.325462,48.376438 113.514259,47.749054 
z"/>
<path fill="#E0E0E7" opacity="1.000000" stroke="none" 
	d="
M70.908394,47.132973 
	C70.370636,45.738514 69.894241,44.707722 69.455864,43.759205 
	C70.824913,42.867779 72.203934,41.969860 73.295265,41.259258 
	C74.507698,42.055237 75.839928,42.929871 77.084106,43.746693 
	C76.647423,44.909595 76.092278,46.388004 75.573135,47.770519 
	C74.097641,47.682732 72.533699,47.589684 70.908394,47.132973 
z"/>
<path fill="#E1E1E8" opacity="1.000000" stroke="none" 
	d="
M53.888077,42.489502 
	C54.891300,42.944843 55.670647,43.142479 57.621296,43.637150 
	C55.089394,45.711414 53.142475,47.306435 50.879936,49.160023 
	C49.920506,46.675949 49.351463,45.202633 48.545567,43.116066 
	C50.898132,44.847401 51.090950,39.662048 53.888077,42.489502 
z"/>
<path fill="#E0E0E7" opacity="1.000000" stroke="none" 
	d="
M10.110807,42.487053 
	C10.828755,41.852150 11.613605,41.051441 11.774867,41.161819 
	C12.951918,41.967442 14.003694,42.956081 15.033685,43.834618 
	C14.595235,45.011467 14.036359,46.511547 13.564876,47.777061 
	C12.132665,47.712124 10.664433,47.645550 9.130651,47.576008 
	C8.612600,46.377628 8.035174,45.041904 7.373468,43.511215 
	C8.207273,43.256599 9.048136,42.999832 10.110807,42.487053 
z"/>
<path fill="#EFEFF2" opacity="1.000000" stroke="none" 
	d="
M8.486065,61.000443 
	C9.757070,60.176186 10.701347,59.385517 12.219969,58.113934 
	C12.991274,60.584232 13.713150,62.896217 14.446069,65.243576 
	C12.276956,65.243576 10.826846,65.243576 9.025800,65.243576 
	C8.800916,64.151016 8.480126,62.592522 8.486065,61.000443 
z"/>
<path fill="#E5E5EB" opacity="1.000000" stroke="none" 
	d="
M33.114799,25.067757 
	C33.992371,25.651258 34.733212,25.920681 35.448933,26.180965 
	C34.845173,27.549934 34.246159,28.908148 33.314804,31.019917 
	C32.272102,30.679491 30.477623,30.541218 29.417709,29.587006 
	C28.734409,28.971848 28.585510,26.695757 29.178185,26.001104 
	C29.917097,25.135048 31.665539,25.130318 33.114799,25.067757 
z"/>
<path fill="#EAEAEE" opacity="1.000000" stroke="none" 
	d="
M81.267380,21.090878 
	C80.921082,19.664640 80.623322,18.545921 80.333252,17.456114 
	C81.195747,16.866814 82.381325,16.056759 83.756119,15.117423 
	C84.614517,15.741337 85.992897,16.743181 87.122894,17.564499 
	C86.668518,18.726492 86.155869,20.037521 85.623726,21.398397 
	C84.307800,21.398397 82.811859,21.398397 81.267380,21.090878 
z"/>
<path fill="#E5E5EB" opacity="1.000000" stroke="none" 
	d="
M90.934433,27.122723 
	C92.567108,26.709757 94.472794,26.510201 96.378479,26.310644 
	C95.487350,25.399120 94.596222,24.487597 93.705101,23.576073 
	C94.973732,24.583857 96.242363,25.591642 98.108910,27.074402 
	C96.381737,28.348801 94.654747,29.623066 92.927765,30.897327 
	C92.354324,29.710262 91.780884,28.523199 90.934433,27.122723 
z"/>
<path fill="#EAEAEE" opacity="1.000000" stroke="none" 
	d="
M22.098404,21.064663 
	C17.962643,22.903912 20.221535,17.700624 17.947813,17.802643 
	C19.178282,16.845917 20.415392,15.890839 21.660492,14.929591 
	C22.605326,15.653090 23.912249,16.653852 25.374918,17.773878 
	C24.549845,18.714596 23.487350,19.926012 22.098404,21.064663 
z"/>
<path fill="#E1E1E8" opacity="1.000000" stroke="none" 
	d="
M65.767044,36.164200 
	C64.126373,37.495026 62.789219,38.608887 61.230145,39.907612 
	C60.437725,37.544014 59.947445,36.081615 59.452038,34.603935 
	C63.652489,32.803856 65.001442,33.070881 65.767044,36.164200 
z"/>
<path fill="#F1F1F4" opacity="1.000000" stroke="none" 
	d="
M94.571716,12.235039 
	C93.479584,12.338105 92.727371,12.581106 91.819839,12.874285 
	C91.355568,11.472804 90.882393,10.044452 89.941086,7.202983 
	C92.755096,7.339854 95.222298,7.459857 98.496269,7.619100 
	C96.876205,9.768511 95.893929,11.071741 94.571716,12.235039 
z"/>
<path fill="#F1F1F4" opacity="1.000000" stroke="none" 
	d="
M33.985825,8.003428 
	C33.829983,9.462297 33.571590,11.094552 32.686768,12.245029 
	C32.221939,12.849417 30.660645,12.610522 29.696323,12.738872 
	C29.261427,11.274754 28.825972,9.808758 27.936098,6.812918 
	C30.285715,7.293763 31.954439,7.635264 33.985825,8.003428 
z"/>
<path fill="#EFEFF2" opacity="1.000000" stroke="none" 
	d="
M72.867905,59.082619 
	C74.350632,60.671909 75.654816,62.550995 77.527679,65.249435 
	C74.200325,65.249435 72.628418,65.249435 70.915726,65.249435 
	C69.940384,63.037121 70.217407,60.911030 72.867905,59.082619 
z"/>
<path fill="#EDEDF1" opacity="1.000000" stroke="none" 
	d="
M76.120186,27.374584 
	C74.385147,28.781212 72.895683,29.912926 71.378532,31.065685 
	C69.158913,27.248302 71.038528,25.272282 73.221008,23.750975 
	C74.429367,24.641142 75.610817,25.506258 76.778496,26.389572 
	C76.828499,26.427397 76.787773,26.656858 76.724464,26.755365 
	C76.637321,26.890970 76.488289,26.986799 76.120186,27.374584 
z"/>
<path fill="#EDEDF1" opacity="1.000000" stroke="none" 
	d="
M14.731188,26.281109 
	C13.177506,28.137812 11.432698,29.678301 9.536748,31.352234 
	C7.153444,27.226181 9.108939,25.277754 11.217444,23.754000 
	C12.354162,24.510382 13.447112,25.237638 14.731188,26.281109 
z"/>
<path fill="#EBEBEF" opacity="1.000000" stroke="none" 
	d="
M30.702572,77.829193 
	C32.543667,77.782906 34.143009,78.002708 37.315536,78.438713 
	C34.209335,80.699249 32.188210,82.170120 30.077139,83.706451 
	C29.363871,81.270126 28.938475,79.817093 28.508560,78.348618 
	C29.158390,78.264290 29.809605,78.179779 30.702572,77.829193 
z"/>
<path fill="#F3F3F5" opacity="1.000000" stroke="none" 
	d="
M59.458237,17.292679 
	C60.821259,16.397287 61.888817,15.720954 63.083057,14.964365 
	C64.087791,16.012655 66.209923,17.609770 65.979736,18.098143 
	C65.173332,19.809017 63.556129,21.137726 61.909534,22.991255 
	C60.583241,20.345428 59.873009,18.928583 59.458237,17.292679 
z"/>
<path fill="#EBEBEF" opacity="1.000000" stroke="none" 
	d="
M96.347153,80.442490 
	C94.789871,81.700706 93.422005,82.656944 92.123726,83.564529 
	C91.410889,81.333221 90.941673,79.864487 90.101814,77.235550 
	C92.835983,77.661911 95.101677,78.015221 97.367386,78.368530 
	C97.090446,78.959190 96.813507,79.549850 96.347153,80.442490 
z"/>
<path fill="#F3F3F5" opacity="1.000000" stroke="none" 
	d="
M60.179115,51.956947 
	C62.870647,47.998478 64.580986,52.776543 67.246559,53.163612 
	C65.171661,54.604095 63.096767,56.044579 60.663395,57.733929 
	C60.281086,55.091396 60.059273,53.558208 60.179115,51.956947 
z"/>
<path fill="#EBEBEF" opacity="1.000000" stroke="none" 
	d="
M53.147049,23.999657 
	C54.294773,25.042574 55.258667,25.797178 55.961815,26.347651 
	C55.464489,27.815844 54.982693,29.238176 54.240047,31.430592 
	C52.308060,29.933144 50.600342,28.609524 48.605602,27.063437 
	C50.416649,25.670292 51.689938,24.690819 53.147049,23.999657 
z"/>
<path fill="#EBEBEF" opacity="1.000000" stroke="none" 
	d="
M112.303162,28.232281 
	C112.743355,26.362309 113.292007,24.862915 113.876671,23.265131 
	C115.537674,24.521164 116.814919,25.487005 117.999229,26.382566 
	C117.533600,27.701658 117.041710,29.095150 116.303986,31.185089 
	C115.011452,30.327606 113.711540,29.465235 112.303162,28.232281 
z"/>
<path fill="#EFEFF2" opacity="1.000000" stroke="none" 
	d="
M115.505280,59.701584 
	C116.476692,60.476166 117.270454,60.951817 118.097267,61.447277 
	C117.667343,62.583916 117.152382,63.945381 116.615601,65.364525 
	C114.108490,65.410728 111.478188,65.371460 111.508057,61.259125 
	C112.458183,60.797325 113.892899,60.099991 115.505280,59.701584 
z"/>
<path fill="#EFEFF2" opacity="1.000000" stroke="none" 
	d="
M53.853176,60.293552 
	C54.795723,60.830502 55.565929,61.070335 56.204487,61.269176 
	C55.646004,62.690762 55.103104,64.072678 54.655212,65.212761 
	C53.331699,65.212761 51.992805,65.212761 50.463947,65.212761 
	C49.424370,62.950161 49.855213,60.636040 52.242970,58.855301 
	C52.368671,58.761559 53.185665,59.594761 53.853176,60.293552 
z"/>
<path fill="#EEEEF2" opacity="1.000000" stroke="none" 
	d="
M33.319313,42.807076 
	C34.236858,43.130119 34.890598,43.210297 36.924992,43.459805 
	C34.161404,45.590904 32.217438,47.089966 30.202316,48.643898 
	C29.488073,46.290337 29.037785,44.806553 28.514805,43.083244 
	C29.868877,42.928463 31.462191,42.746334 33.319313,42.807076 
z"/>
<path fill="#EEEEF2" opacity="1.000000" stroke="none" 
	d="
M95.846146,47.404129 
	C94.295807,47.708488 92.922462,47.708488 91.825584,47.708488 
	C91.454887,46.318695 91.095123,44.969906 90.440071,42.514046 
	C92.790855,42.514046 95.160797,42.514046 97.869553,42.514046 
	C97.024780,44.612110 96.523956,45.855938 95.846146,47.404129 
z"/>
<path fill="#AF0C26" opacity="1.000000" stroke="none" 
	d="
M125.132797,12.340359 
	C125.681526,12.199100 126.212105,12.395778 126.887238,12.846027 
	C126.628181,13.175397 126.224571,13.251192 125.511368,13.338244 
	C125.172737,13.125766 125.143684,12.902030 125.132797,12.340359 
z"/>
<path fill="#B01A2D" opacity="1.000000" stroke="none" 
	d="
M125.144043,77.333832 
	C125.191818,77.122574 125.527573,77.417252 125.527573,77.417252 
	C125.527573,77.417252 125.423141,77.818825 125.286140,77.896927 
	C125.149139,77.975021 125.096275,77.545082 125.144043,77.333832 
z"/>
<path fill="#B01A2D" opacity="1.000000" stroke="none" 
	d="
M125.121162,87.229507 
	C125.520416,87.170357 125.622604,87.400917 125.316788,87.779030 
	C125.177681,87.842995 125.092979,87.435631 125.121162,87.229507 
z"/>
</svg>